<?xml version="1.0" encoding="utf-8"?>
<!-- Generator: Adobe Illustrator 27.5.0, SVG Export Plug-In . SVG Version: 6.00 Build 0)  -->
<svg version="1.1" id="Capa_1" xmlns="http://www.w3.org/2000/svg" xmlns:xlink="http://www.w3.org/1999/xlink" x="0px" y="0px"
	 viewBox="0 0 2122 2122" style="enable-background:new 0 0 2122 2122;" xml:space="preserve">
<g>
	<g>
		<path style="fill:#F9B97B;" d="M1857.424,1113.323c-9.054-4.489-18.467-7.036-27.988-7.578c-1.266-0.07-2.531-0.105-3.802-0.105
			c-26.788,0-53.515,15.885-65.977,39.623c-12.865,24.51-11.012,54.093-8.006,82.291c0.453,4.225,0.901,8.491,1.32,12.761
			c0.019,0.244,0.179,0.453,0.409,0.538c0.075,0.025,0.15,0.04,0.224,0.04c0.16,0,0.314-0.06,0.434-0.174
			c16.404-15.347,31.138-30.101,45.059-45.099c14.635-15.82,31.193-40.534,48.722-66.699c3.229-4.818,6.512-9.721,9.851-14.664
			c0.105-0.154,0.134-0.344,0.089-0.523C1857.708,1113.557,1857.587,1113.407,1857.424,1113.323z"/>
		<path style="fill:#F9B97B;" d="M955.228,1328.399c4.071,13.03,8.282,26.503,11.575,39.952c1.054,4.29,2.001,8.616,2.818,12.856
			c0.04,0.214,0.188,0.394,0.389,0.474c19.722,7.868,38.38,17.599,52.431,25.198c4.24,2.287,8.511,4.639,12.816,7.001
			c35.417,19.478,72.041,39.613,112.486,40.241c0.463,0.005,0.922,0.01,1.385,0.01c27.579,0,49.284-12.547,65.169-23.549
			c0.184-0.125,0.284-0.339,0.274-0.563c-0.014-0.219-0.144-0.418-0.338-0.523c-17.818-9.408-31.058-25.318-36.32-43.65
			c-5.789-20.165-2.436-41.631,0.808-62.384c1.016-6.503,2.068-13.229,2.82-19.807c3.419-29.931,0.782-61.034-7.629-89.949
			c-6.049-20.803-20.768-44.227-42.398-41.716c-20.559,2.372-30.475,26.573-31.182,49.499c-0.099,3.214-0.13,6.488-0.159,9.781
			c-0.169,18.228-0.349,37.072-12.108,50.122c-6.233,6.916-15.696,10.863-26,10.863h-0.273c-10.409-0.07-19.926-4.161-26.12-11.216
			c-9.993-11.391-11.667-27.764-13.286-43.599c-1.821-17.808-3.705-36.22-17.759-46.758c-7.055-5.302-16.321-7.27-26.068-5.536
			c-12.227,2.157-23.979,9.881-30.666,20.145c-10.081,15.481-12.825,36.11-8.394,63.072
			C942.861,1288.821,949.147,1308.942,955.228,1328.399z"/>
		<path style="fill:#F9B97B;" d="M1656.752,1319.216c-13.284-20.315-21.77-43.794-24.535-67.905
			c-1.006-8.78-1.311-17.913-1.599-26.742c-0.668-20.31-1.36-41.313-10.728-59.52c-11.545-22.427-36.608-37.48-61.811-37.48
			c-1.097,0-2.198,0.03-3.299,0.084c-26.289,1.385-51.297,19.498-60.81,44.038c-7.39,19.04-5.914,39.987-4.485,60.242
			c0.478,6.747,0.967,13.728,1.121,20.509c0.289,12.781-1.171,55.488-32.079,68.518c-28.183,11.894-61.262-12.452-74.462-42.643
			c-6.089-13.937-9.666-29.085-13.13-43.734c-3.822-16.194-7.778-32.936-15.143-48.144c-10.613-21.914-35.103-46.37-54.636-47.839
			c-7.927-0.553-14.349,2.581-19.063,9.452c-25.677,37.436-6.976,88.644,9.326,123.912c12.523,27.076,28.108,60.77,27.446,92.326
			c-0.005,0.204,0.085,0.394,0.244,0.518c0.159,0.125,0.359,0.165,0.558,0.115c8.551-2.302,17.241-3.697,25.821-4.141
			c34.35-1.754,68.029,11.481,99.296,26.05c7.729,3.608,15.556,7.484,23.12,11.236c10.812,5.357,21.989,10.892,33.21,15.806
			c0.08,0.035,0.17,0.054,0.255,0.054c0.099,0,0.194-0.02,0.283-0.064c55.159-27.5,107.374-58.922,155.208-93.387
			c0.279-0.204,0.349-0.598,0.15-0.882L1656.752,1319.216z"/>
		<path style="fill:#F9B97B;" d="M1437.326,1427.656l-2.526-1.196c-27.047-12.781-64.078-30.29-99.87-23.135
			c-27.534,5.492-49.778,24.137-71.293,42.169c-6.423,5.386-13.07,10.953-19.617,15.935
			c-34.975,26.658-69.798,38.133-106.492,35.059c-44.322-3.687-84.109-23.633-124.342-45.512l-4.689-2.556
			c-11.241-6.124-22.864-12.452-34.862-18.267c-0.196-0.1-0.411-0.085-0.593,0.019c-0.182,0.1-0.301,0.284-0.322,0.494
			c-1.316,14.281-4.865,27.286-10.548,38.651c-14.692,29.383-52.303,52.165-84.889,39.224
			c-26.064-10.349-39.186-38.676-42.775-61.741c-0.667-4.295-1.106-8.954-1.378-14.669c-0.012-0.239-0.157-0.453-0.375-0.553
			c-0.221-0.095-0.48-0.065-0.663,0.085c-12.634,10.225-23.835,22.477-34.668,34.326c-44.2,48.363-94.236,89.62-160.53,64.153
			c-24.597-9.417-46.07-24.814-65.017-38.402c-0.257-0.185-0.614-0.15-0.835,0.08c-27.014,28.451-76.979,32.104-106.925,7.798
			c-11.382-9.243-20.364-21.844-26.705-37.466c-0.07-0.175-0.21-0.304-0.386-0.364c-0.174-0.06-0.364-0.04-0.528,0.055
			c-11.933,7.026-23.204,15.84-34.107,24.365c-6.622,5.182-12.876,10.07-19.213,14.54c-35.555,25.133-70.553,35.468-106.995,31.641
			c-25.235-2.651-49.222-11.151-72.419-19.373c-18.081-6.413-36.776-13.04-56.014-16.892l-0.413-0.079
			c-1.112-0.219-2.223-0.439-3.331-0.623c-0.215-0.02-0.397,0.026-0.539,0.16c-0.144,0.13-0.223,0.324-0.205,0.518
			c0.45,5.471,0.907,10.937,1.366,16.403c0.434,5.148,0.865,10.289,1.289,15.432l0.744,8.585c1.794,19.428,3.83,39.862,6.052,60.725
			c0.446,4.34,0.909,8.7,1.378,13.03c0.959,8.934,2.041,18.551,3.301,29.354c0.185,1.594,0.366,3.168,0.545,4.713
			c0.227,1.944,0.459,3.857,0.703,5.75c1.066,8.291,2.401,16.074,4.771,23.26c1.779,5.411,4.138,10.473,7.402,15.128
			c6.413,9.203,15.469,15.85,27.684,20.324c0.073,0.025,0.143,0.05,0.215,0.075c0.072,0.03,0.144,0.039,0.215,0.039
			c0.262,0,0.506-0.159,0.601-0.418c0.12-0.333-0.052-0.698-0.384-0.816c-0.025-0.01-0.052-0.021-0.079-0.031
			c-12.023-4.384-20.921-10.902-27.196-19.916c-3.188-4.554-5.498-9.492-7.242-14.778c-2.332-7.096-3.659-14.829-4.729-23.085
			c-0.238-1.874-0.467-3.777-0.69-5.701c-0.184-1.565-0.364-3.104-0.54-4.619c-1.066-9.233-2.21-19.268-3.314-29.468
			c-0.448-4.176-0.869-8.201-1.27-12.128c1.258,0.184,2.519,0.328,3.742,0.463c217.667,26.538,458.843,20.713,737.31-17.813
			c158.649-21.89,365.489-58.049,558.407-144.142c0.229-0.105,0.378-0.329,0.378-0.578c0-0.249-0.139-0.479-0.368-0.583
			C1448.139,1432.778,1442.733,1430.217,1437.326,1427.656z"/>
		<path style="fill:#F9B97B;" d="M253.274,1481.037c15.197,4.22,28.423,6.328,40.437,6.328c11.019,0,21.019-1.774,30.579-5.307
			c17.848-6.617,33.619-18.317,48.868-29.622l3.429-2.542c17.227-12.731,32.888-23.962,50.116-32.542
			c0.237-0.12,0.374-0.369,0.351-0.633c-0.403-4.45-0.674-9.034-0.812-13.628c-0.376-12.691,0.054-25.651,0.471-38.188
			c0.76-22.826,1.545-46.434-2.521-69.276c-3.426-19.253-12.053-45.443-33.701-60.884c-18.378-13.11-48.619-15.461-65.425,3.613
			c-7.515,8.53-10.878,19.667-14.129,30.429c-1.395,4.619-2.84,9.398-4.591,13.902c-6.017,15.466-19.816,29.443-34.645,26.134
			c-18.088-4.011-19.355-24.57-20.699-46.34c-1.306-21.162-2.653-43.046-20.574-49.409c-6.356-2.247-12.711-1.739-18.9,1.525
			c-13.79,7.29-22.886,25.865-26.486,39.553c-6.704,25.507-15.805,49.32-36.822,50.854c-4.913,0.379-9.861-0.792-14.628-3.433
			c-0.198-0.114-0.445-0.109-0.64,0.015c-0.198,0.12-0.314,0.334-0.306,0.563c0.867,28.118,1.831,52.777,2.945,75.394
			c1.338,25.816,2.681,48.527,4.105,69.435c0.019,0.299,0.248,0.548,0.548,0.588c24.564,3.354,48.243,11.709,71.144,19.786
			C224.976,1472.147,239.03,1477.1,253.274,1481.037z"/>
		<path style="fill:#F9B97B;" d="M591.192,1452.525c-0.06,0.249,0.038,0.508,0.247,0.663c18.047,13.08,35.853,25.516,55.209,33.953
			c10.982,4.788,21.187,6.896,30.767,6.896c36.154,0,63.4-30.021,89.931-59.255c9.851-10.857,19.153-21.107,28.818-29.727
			c12.666-11.301,26.059-20.355,39.807-26.902c0.202-0.1,0.337-0.289,0.362-0.513c0.338-3.229,0.669-6.463,0.968-9.686
			c2.976-31.965,3.055-64.392,0.24-96.377c-1.682-19.099-9.781-43.185-24.079-53.943c-6.702-5.043-14.149-6.797-22.163-5.247
			c-19.866,3.881-25.167,23.703-30.781,44.691c-3.919,14.659-7.975,29.817-17.27,40.191c-8.543,9.517-22.857,13.359-37.316,10.04
			c-14.478-3.334-25.657-13.04-29.174-25.337c-2.494-8.72-1.946-18.292-1.417-27.555c0.707-12.387,1.439-25.198-5.302-35.677
			c-4.946-7.694-12.913-12.407-23.043-13.637c-14.375-1.724-30.746,3.831-41.691,14.201
			c-35.143,33.285-28.369,91.443-20.217,132.297C591.164,1382.069,598.731,1419.992,591.192,1452.525z"/>
	</g>
	<g>
		<path style="fill:#EAA060;" d="M1924.238,1266.827c-5.831-5.556-10.609-12.238-13.813-19.323
			c-6.846-15.113-7.813-32.199-8.745-48.727c-0.872-15.417-1.774-31.356-7.399-45.861c-6.492-16.762-19.926-31.192-36.857-39.593
			c-0.279-0.139-0.638-0.05-0.812,0.214c-3.339,4.948-6.622,9.851-9.856,14.674c-17.499,26.12-34.033,50.794-48.597,66.54
			c-13.897,14.979-28.615,29.708-44.989,45.04c-0.145,0.135-0.219,0.329-0.199,0.523c2.118,21.875,3.583,47.077-5.919,69.41
			c-6.339,14.894-19.463,27.664-34.262,33.325c-11.201,4.28-22.219,4.161-31.89-0.359c-8.546-4.001-16.135-11.336-23.878-23.08
			c-0.095-0.15-0.249-0.249-0.419-0.279c-0.169-0.02-0.343,0.005-0.488,0.109c-47.774,34.426-99.934,65.813-155.029,93.277
			c-0.224,0.115-0.359,0.344-0.354,0.588c0.005,0.249,0.155,0.469,0.384,0.568c16.713,7.32,30.769,12.044,44.237,14.868
			c7.42,1.565,14.868,2.352,22.383,2.352c22.202,0,44.915-6.866,68.832-20.743c18.122-10.508,35.681-23.748,52.663-36.549
			c33.714-25.417,68.568-51.701,110.643-59.161c39.837-7.125,74.766,7.31,103.666,22.363l4.665,2.427
			c1.998,1.047,4.046,2.118,6.144,3.204c0.189,0.09,0.409,0.09,0.588,0c0.184-0.1,0.309-0.279,0.339-0.484l0.115-0.767
			c0.164-1.161,0.323-2.322,0.478-3.483l0.319-2.317c1.22-8.82,2.446-18.227,3.756-28.761l0.449-3.558
			c0.224-1.798,0.453-3.598,0.667-5.401c1.076-9.034,2.168-18.909,3.339-30.196l0.035-0.289
			C1924.462,1267.176,1924.387,1266.972,1924.238,1266.827z"/>
		<path style="fill:#EAA060;" d="M1910.176,1372.681c-3.812-1.495-7.624-3.024-11.436-4.549
			c-29.637-11.874-60.272-24.141-86.904-19.518c-33.713,5.845-63.312,28.387-89.425,48.278l-2.078,1.579
			c-3.14,2.392-6.269,4.799-9.399,7.206c-25.332,19.468-51.522,39.593-81.608,52.274c-61.801,26.055-118.41,4.151-175.776-22.647
			c-0.165-0.075-0.364-0.08-0.529-0.005c-192.773,86.027-399.499,122.167-558.063,144.042
			c-278.355,38.507-519.428,44.327-736.987,17.814c-1.48-0.165-3.009-0.339-4.505-0.583c-0.187-0.03-0.394,0.025-0.541,0.165
			c-0.144,0.134-0.218,0.329-0.198,0.527c1.397,13.768,3.054,28.721,5.212,47.058c1.946,16.861,4.258,31.824,12.88,44.142
			c6.445,9.258,15.567,15.94,27.889,20.415c15.093,5.486,32.58,6.681,48.758,6.681c3.022,0,6.004-0.04,8.912-0.105
			c92.965-2.142,188.579-5.885,292.309-11.435c339.992-18.198,672.833-51.661,1012.275-87.263
			c34.441-3.613,68.872-7.235,103.307-10.863c2.188-0.229,4.395-0.473,6.603-0.722l1.764-0.195
			c61.059-6.741,129.98-17.569,175.099-60.964c4.983-4.793,8.888-8.989,12.297-13.209c27.355-33.917,36.893-77.841,44.322-119.92
			c0.194-1.076,0.369-2.152,0.543-3.234c0.15-0.891,0.294-1.788,0.448-2.681c1.451-8.271,2.985-17.096,4.366-26l0.283-1.813
			c0.11-0.672,0.209-1.345,0.309-2.018c0.084-0.588,0.175-1.176,0.264-1.764C1910.62,1373.079,1910.455,1372.791,1910.176,1372.681z
			"/>
	</g>
	<path style="fill:#502015;" d="M2006.04,1214.02l-48.388-202.913c-3.009-12.646-6.428-26.982-14.066-38.736
		c-0.165-0.254-0.343-0.493-0.523-0.732c-0.124-0.17-0.249-0.334-0.368-0.508c-0.18-0.264-0.548-0.354-0.828-0.2
		c-0.283,0.155-0.409,0.503-0.289,0.802l0.13,0.314c0.378,0.927,0.757,1.859,1.111,2.795
		c-70.656,31.391-147.131,46.305-225.814,60.018c-432.575,75.599-873.918,113.861-1312.921,113.861
		c-19.273,0-38.618-0.074-57.88-0.224c-37.343-0.244-75.925-0.817-114.672-1.699c-44.492-1.066-81.442-6.582-109.824-16.398
		c-0.189-0.065-0.394-0.04-0.558,0.07c-0.167,0.109-0.271,0.284-0.286,0.483l-8.461,106.92c-1.095,13.797-2.333,29.438,2.82,43.479
		c3.319,9.039,9.954,17.011,17.752,21.337c4.983,2.76,10.12,3.951,15.339,3.593c21.814-1.594,31.136-25.841,37.963-51.801
		c3.812-14.505,13.281-32.114,25.845-38.751c5.857-3.094,11.872-3.587,17.876-1.449c17.128,6.079,18.45,27.535,19.729,48.283
		c1.314,21.281,2.671,43.285,21.698,47.506c15.479,3.443,29.892-10.942,36.11-26.922c1.769-4.544,3.22-9.348,4.622-13.992
		c3.211-10.633,6.535-21.63,13.865-29.951c15.82-17.963,45.725-16.274,63.727-3.423c21.299,15.198,29.804,41.053,33.188,60.067
		c4.043,22.712,3.258,46.25,2.504,69.016c-0.419,12.552-0.85,25.532-0.473,38.268c0.137,4.614,0.413,9.228,0.818,13.707
		c1.551,17.126,5.066,32.538,10.446,45.792c6.419,15.82,15.533,28.596,27.083,37.974c13.576,11.022,31.194,16.388,48.991,16.388
		c22.093,0,44.458-8.281,59.663-24.296c1.858-1.953,3.608-4.021,5.195-6.139c7.256-9.682,12.253-20.718,15.27-33.743
		c7.603-32.802,0.006-70.875-6.097-101.464c-8.092-40.555-14.841-98.275,19.844-131.122c10.521-9.96,26.887-15.531,40.659-13.857
		c9.742,1.176,17.392,5.696,22.126,13.055c6.515,10.135,5.827,22.174,5.1,34.919c-0.536,9.363-1.089,19.049,1.465,27.974
		c3.644,12.746,15.183,22.796,30.113,26.229c14.926,3.443,29.705-0.563,38.554-10.434c9.497-10.598,13.593-25.905,17.552-40.709
		c5.504-20.589,10.707-40.036,29.791-43.764c7.628-1.5,14.747,0.194,21.151,5.012c13.985,10.519,21.917,34.217,23.576,53.032
		c2.81,31.914,2.729,64.263-0.239,96.148c-0.298,3.224-0.63,6.448-0.969,9.676l-0.417,3.946c-1.766,16.653-3.595,33.873-2.79,50.735
		c0.274,5.76,0.717,10.464,1.393,14.808c3.643,23.41,17.001,52.185,43.567,62.729c33.223,13.184,71.553-9.956,86.498-39.842
		c5.756-11.51,9.347-24.665,10.679-39.1c1.39-15.063,0.341-31.825-3.119-49.818c-0.82-4.265-1.773-8.61-2.828-12.915
		c-3.304-13.493-7.522-26.987-11.598-40.031c-6.07-19.418-12.342-39.494-15.689-59.868c-4.38-26.633-1.696-46.968,8.204-62.165
		c6.501-9.98,17.926-17.484,29.818-19.587c9.397-1.659,18.307,0.219,25.078,5.296c13.611,10.21,15.382,27.53,17.258,45.872
		c1.639,16.034,3.336,32.612,13.598,44.307c6.433,7.335,16.298,11.58,27.067,11.655h0.283c10.664,0,20.475-4.101,26.948-11.281
		c12.087-13.414,12.262-32.503,12.436-50.964c0.029-3.288,0.06-6.552,0.161-9.756c0.687-22.378,10.249-45.986,30.055-48.273
		c20.763-2.367,35.114,20.479,41.023,40.809c8.367,28.75,10.987,59.678,7.589,89.441c-0.752,6.557-1.799,13.269-2.816,19.762
		c-3.264,20.888-6.642,42.493-0.772,62.928c5.356,18.665,18.824,34.859,36.947,44.426c9.039,4.773,18.49,7.529,28.087,8.197
		c1.521,0.105,3.035,0.155,4.55,0.155c28.018,0,55.733-17.649,67.128-43.3c4.299-9.682,6.508-19.941,6.741-31.352
		c0.669-31.854-14.988-65.698-27.564-92.894c-16.168-34.979-34.739-85.753-9.428-122.656c4.44-6.467,10.515-9.462,17.914-8.899
		c18.81,1.415,43.334,25.975,53.584,47.127c7.304,15.078,11.242,31.75,15.048,47.879c3.473,14.704,7.065,29.907,13.204,43.948
		c13.439,30.753,47.242,55.488,76.127,43.31c31.651-13.344,33.151-56.739,32.856-69.724c-0.155-6.812-0.647-13.807-1.12-20.569
		c-1.42-20.115-2.891-40.919,4.394-59.694c9.343-24.086,33.887-41.86,59.694-43.22c1.076-0.059,2.157-0.085,3.234-0.085
		c24.739,0,49.339,14.779,60.67,36.793c9.243,17.948,9.926,38.801,10.589,58.971c0.293,8.859,0.593,18.018,1.609,26.852
		c2.79,24.306,11.341,47.974,24.734,68.458l0.269,0.389c7.878,11.953,15.636,19.433,24.405,23.538
		c9.976,4.664,21.351,4.808,32.882,0.394c15.112-5.78,28.516-18.815,34.983-34.017c9.617-22.607,8.147-48.004,6.01-70.028
		c-0.419-4.28-0.867-8.545-1.32-12.781c-2.98-27.998-4.829-57.361,7.868-81.563c12.83-24.426,41.047-40.401,68.582-38.831
		c9.343,0.528,18.595,3.034,27.49,7.449c16.652,8.261,29.857,22.442,36.239,38.906c5.55,14.32,6.443,30.161,7.31,45.478
		c0.942,16.637,1.913,33.848,8.854,49.18c3.273,7.23,8.152,14.052,14.101,19.722c10.942,10.419,24.51,16.249,38.208,16.413
		c0.19,0,0.374,0.005,0.563,0.005c23.045-0.005,44.202-17.32,47.301-38.851C2010.963,1234.683,2008.347,1223.707,2006.04,1214.02z"
		/>
	<path style="fill:#512619;" d="M1942.888,971.563l-0.124-0.308c-1.097-2.716-2.078-4.943-3.085-7.006
		c-15.446-31.944-43.499-54.945-70.631-77.183c-16.812-13.687-35.173-29.234-54.611-45.687
		c-27.843-23.574-59.399-50.286-92.201-76.381c-0.085-0.065-0.18-0.11-0.279-0.13c-63.576-12.118-132.133-20.843-222.286-28.292
		h-0.056c-0.219,0-0.419,0.11-0.537,0.294c-0.13,0.199-0.135,0.454-0.016,0.663c10.279,17.933,14.889,36.484,13.334,53.645
		c-4.545,49.474-55.807,78.324-77.642,88.429c-55.138,25.472-114.1,31.187-166.005,16.13c-0.314-0.085-0.647,0.069-0.767,0.369
		c-15.68,38.148-54.706,66.968-101.853,75.215c-38.272,6.737-80.735,1.151-129.816-17.046l-0.598-0.219
		c-6.243-2.292-12.714-4.659-19.319-3.712c-5.033,0.712-9.524,3.294-13.869,5.79l-1.031,0.593
		c-53.064,30.569-133.634,26.105-187.412-10.379c-17.345-11.724-30.874-26.06-40.215-42.603c-3.723-6.577-6.799-13.927-9.14-21.834
		c-0.05-0.174-0.175-0.319-0.341-0.399c-0.165-0.079-0.354-0.074-0.523-0.005l-2.908,1.246
		c-155.746,67.771-270.654,136.274-361.626,215.589c-17.979,15.666-35.44,32.672-52.327,49.12l-1.25,1.216
		c-0.184,0.179-0.242,0.458-0.147,0.698c0.097,0.239,0.329,0.399,0.588,0.399c19.294,0.149,38.587,0.224,57.89,0.224
		c439.048-0.005,880.521-38.272,1313.14-113.881c78.967-13.762,155.722-28.73,226.661-60.351c0.309-0.135,0.453-0.488,0.339-0.802
		C1943.805,973.825,1943.347,972.694,1942.888,971.563z"/>
	<path style="fill:#FAC48E;" d="M1465,696.375c-0.015-0.165-0.099-0.319-0.229-0.424c-27.061-21.944-60.924-34.994-95.351-36.753
		h-0.035c-0.179,0-0.349,0.075-0.468,0.205c-0.13,0.144-0.19,0.334-0.165,0.518c5.764,41.836-5.376,79.505-33.105,111.963
		c-10.259,12.014-23.091,23.185-38.139,33.21c-17.409-9.891-39.035-16.832-47.212-19.458c-42.797-13.737-88.15-16.349-131.181-7.529
		c-5.705,1.166-11.679,2.681-18.795,4.764c-34.475,10.08-63.539,27.37-84.064,49.997c-5.783,6.378-10.304,13.174-13.099,19.682
		c-41.859-9.442-96.385-30.833-119.639-79.161c-5.252-10.922-8.837-23.339-10.653-36.913c-0.042-0.319-0.314-0.553-0.633-0.553
		h-0.003c-31.899,0.13-62.093,12.666-82.838,34.401c-16.645,17.435-27.274,41.158-29.93,66.799
		c-1.579,15.252-0.182,30.863,4.047,45.144c2.366,8.002,5.481,15.442,9.25,22.104c9.438,16.717,23.101,31.192,40.612,43.031
		c0.085,0.06,0.182,0.095,0.281,0.105c15.18,1.774,30.382,2.661,45.558,2.661c28.742,0,57.388-3.178,85.588-9.512
		c41.401-9.307,69.351-24.869,85.4-47.545c35.582,30.804,85.813,42.314,131.271,30.051c45.404-12.218,83.024-47.436,98.33-91.997
		c57.702,22.906,124.371,12.591,166.082-25.781C1455.274,778.321,1469.53,738.589,1465,696.375z"/>
	<path style="fill:#E83C69;" d="M1123.222,420.947c-2.636-4.405-5.999-9.079-10.579-14.704c-0.129-0.164-0.328-0.234-0.533-0.234
		c-51.846,3.229-95.606,42.294-124.013,71.403c-72.445,74.253-111.929,148.731-117.352,221.35
		c-1.002,13.409-0.715,26.15,0.855,37.884c1.836,13.708,5.458,26.254,10.768,37.296c23.576,48.991,78.827,70.526,121.028,79.969
		c0.048,0.01,0.095,0.015,0.14,0.015c0.254,0,0.488-0.15,0.589-0.394c2.723-6.523,7.245-13.374,13.079-19.806
		c20.365-22.453,49.23-39.618,83.476-49.628c0.125-0.04,0.24-0.115,0.319-0.214c30.723-38.636,52.239-83.432,62.214-129.537
		C1180.036,576.714,1165.457,491.642,1123.222,420.947z"/>
	<path style="fill:#D32059;" d="M1370.019,659.751c-2.805-20.36-9.626-41.761-20.276-63.6
		c-34.097-69.933-95.181-122.611-119.865-142.014c-28.402-22.363-66.57-48.069-109.94-48.378c-2.351,0-5.127,0.029-7.837,0.249
		c-0.239,0.02-0.444,0.17-0.539,0.389c-0.089,0.219-0.054,0.468,0.095,0.652c4.54,5.576,7.868,10.2,10.469,14.555
		c42.075,70.416,56.595,155.148,39.843,232.471c-9.936,45.916-31.362,90.527-61.966,129.009c-0.174,0.22-0.185,0.523-0.03,0.752
		c0.15,0.229,0.429,0.329,0.708,0.259c7.081-2.073,13.021-3.578,18.696-4.743c42.806-8.76,87.935-6.169,130.534,7.499
		c8.192,2.631,29.962,9.612,47.306,19.542c0.099,0.055,0.21,0.085,0.318,0.085c0.126,0,0.245-0.035,0.354-0.105
		c15.287-10.145,28.317-21.47,38.726-33.663C1364.593,739.964,1375.834,701.96,1370.019,659.751z"/>
	<g>
		<path style="fill:#8E153C;" d="M1046.562,567.979c-4.444,0-6.766,3.513-6.766,6.986c0,1.814,0.598,3.513,1.684,4.779
			c1.24,1.44,2.994,2.203,5.082,2.203c4.445,0,6.767-3.513,6.767-6.986c0-1.813-0.598-3.513-1.684-4.778
			C1050.404,568.741,1048.65,567.979,1046.562,567.979z"/>
		<path style="fill:#8E153C;" d="M1090.66,644.798c-3.124,0-6.228,1.375-8.521,3.772c-2.147,2.243-3.254,5.047-3.129,7.908
			c0.293,6.512,5.411,11.615,11.649,11.615c3.124,0,6.233-1.375,8.526-3.777c2.143-2.237,3.248-5.042,3.12-7.898
			C1102.016,649.9,1096.899,644.798,1090.66,644.798z"/>
		<path style="fill:#8E153C;" d="M971.786,671.615c-5.593,0-8.52,4.43-8.52,8.805c0,4.365,2.927,8.79,8.52,8.79
			s8.521-4.43,8.521-8.805C980.307,676.04,977.379,671.615,971.786,671.615z"/>
		<path style="fill:#8E153C;" d="M973.836,601.493c1.672-1.948,2.593-4.564,2.593-7.365c0-5.167-3.252-10.733-10.396-10.733
			c-3.206,0-5.902,1.171-7.8,3.383c-1.674,1.948-2.597,4.564-2.597,7.365c0,5.167,3.254,10.733,10.397,10.733
			C969.24,604.876,971.938,603.705,973.836,601.493z"/>
		<path style="fill:#8E153C;" d="M1233.555,688.98c-3.702-1.888-6.995-1.938-10.334-0.165c-2.487,1.326-4.365,3.682-5.152,6.468
			c-0.792,2.79-0.43,5.79,1.001,8.231c1.674,2.86,4.754,4.794,8.236,5.168c0.399,0.045,0.793,0.065,1.182,0.065
			c2.825,0,5.421-1.102,7.264-3.105c2.362-2.576,3.438-6.333,2.81-9.816C1238.01,692.772,1236.231,690.341,1233.555,688.98z"/>
		<path style="fill:#8E153C;" d="M1312.627,678.895c-0.378-0.054-0.773-0.129-1.176-0.209c-1.599-0.304-3.413-0.653-5.027,0.03
			c-1.713,0.717-2.535,2.302-3.259,3.697l-0.264,0.508c-1.793,3.374-1.276,7.38,1.316,10.215c1.659,1.814,3.843,2.765,6.13,2.765
			c1.125,0,2.276-0.229,3.398-0.702c3.234-1.365,5.322-4.475,5.322-7.928C1319.065,683.774,1316.424,679.473,1312.627,678.895z"/>
		<path style="fill:#8E153C;" d="M1232.543,575.508c-3.128,0-5.76,1.141-7.613,3.299c-1.635,1.903-2.531,4.454-2.531,7.19
			c0,5.042,3.174,10.474,10.144,10.474c6.663,0,10.151-5.277,10.151-10.488C1242.694,580.939,1239.516,575.508,1232.543,575.508z"/>
		<path style="fill:#8E153C;" d="M990.95,748.205c-2.779,0-5.539,1.221-7.577,3.354c-1.903,1.988-2.886,4.484-2.775,7.026
			c0.261,5.79,4.808,10.324,10.352,10.324c2.777,0,5.538-1.221,7.576-3.353c1.903-1.994,2.89-4.49,2.775-7.031
			C1001.043,752.74,996.495,748.205,990.95,748.205z"/>
		<path style="fill:#8E153C;" d="M1074.087,477.507c2.033,1.216,4.315,1.844,6.518,1.844c1.176,0,2.332-0.18,3.414-0.548
			c5.466-1.863,8.65-6.751,7.923-12.163c-0.469-3.468-2.606-6.557-5.641-8.226c-2.357-1.709-5.217-2.452-8.043-2.063
			c-3.068,0.414-5.595,1.858-7.314,4.18c-1.913,2.596-2.665,6.174-2.058,9.811C1069.364,473.207,1071.257,475.822,1074.087,477.507z
			"/>
		<path style="fill:#8E153C;" d="M1119.635,558.098l-1.445,0.069c-3.463,0.165-6.512,2.377-7.773,5.636
			c-1.2,3.1-0.502,6.358,1.854,8.72c1.599,1.594,3.607,2.426,5.7,2.426c0.996,0,2.018-0.194,3.02-0.578
			c3.258-1.261,5.471-4.31,5.641-7.768c0,0,0,0,0-0.005l0.069-1.43c0.084-1.774-0.673-3.598-2.083-5.003
			C1123.217,558.77,1121.389,558.003,1119.635,558.098z"/>
		<path style="fill:#8E153C;" d="M1226.076,494.134c4.69,0,7.141-3.712,7.141-7.375c0-1.918-0.628-3.707-1.779-5.042
			c-1.306-1.525-3.159-2.327-5.362-2.327c-4.694,0-7.145,3.712-7.145,7.375c0,1.918,0.634,3.707,1.779,5.042
			C1222.02,493.332,1223.875,494.134,1226.076,494.134z"/>
		<path style="fill:#8E153C;" d="M1180.773,724.781c-5.018,0-7.643,3.971-7.643,7.893c0,2.053,0.676,3.971,1.903,5.401
			c1.401,1.624,3.384,2.487,5.74,2.487c5.017,0,7.649-3.971,7.649-7.893c0-2.053-0.678-3.971-1.909-5.401
			C1185.118,725.643,1183.13,724.781,1180.773,724.781z"/>
		<path style="fill:#8E153C;" d="M1018.993,513.422c-3.264,0-6.508,1.435-8.905,3.941c-2.236,2.342-3.393,5.272-3.261,8.257
			c0.304,6.801,5.649,12.133,12.166,12.133c3.26,0,6.504-1.435,8.901-3.941c2.235-2.337,3.396-5.267,3.267-8.251
			C1030.852,518.754,1025.505,513.422,1018.993,513.422z"/>
		<path style="fill:#8E153C;" d="M1072.922,720.81c-6.168,0-9.398,4.883-9.398,9.711c0,4.669,2.941,9.697,9.398,9.697
			c6.169,0,9.392-4.883,9.392-9.711C1082.314,725.838,1079.374,720.81,1072.922,720.81z"/>
		<path style="fill:#8E153C;" d="M915.454,713.56c-6.663,0-10.148,5.277-10.148,10.489c0,2.73,0.899,5.277,2.531,7.18
			c1.851,2.153,4.484,3.294,7.616,3.294c6.661,0,10.144-5.277,10.144-10.489C925.597,718.991,922.424,713.56,915.454,713.56z"/>
	</g>
	<path style="fill:#EFAA6C;" d="M1500.169,736.894c-3.817-6.662-8.306-13.114-13.339-19.178
		c-6.548-7.898-13.967-15.223-22.064-21.77c-0.193-0.155-0.478-0.19-0.702-0.06c-0.229,0.12-0.36,0.369-0.329,0.628
		c4.484,41.806-9.626,81.145-38.721,107.932c-41.501,38.178-107.952,48.348-165.364,25.283c-0.165-0.065-0.343-0.06-0.508,0.015
		c-0.159,0.07-0.279,0.209-0.334,0.374c-14.804,43.793-53.142,79.829-97.667,91.807c-44.616,12.049-95.884,0.165-130.639-30.24
		c-0.13-0.12-0.274-0.19-0.498-0.155c-0.18,0.02-0.339,0.12-0.443,0.269c-15.793,22.722-43.611,38.293-85.042,47.61
		c-42.944,9.647-86.927,11.934-130.718,6.831c-0.269-0.039-0.568,0.14-0.673,0.409c-0.102,0.279-0.002,0.588,0.24,0.752
		c30.061,20.395,68.433,30.849,105.778,30.849c29.93,0,59.203-6.722,82.986-20.42l1.029-0.593c4.241-2.437,8.623-4.958,13.414-5.631
		c6.318-0.917,12.607,1.41,18.7,3.643l0.599,0.219c49.309,18.277,91.997,23.863,130.474,17.106
		c47.356-8.281,86.61-37.166,102.59-75.454c52.08,14.948,111.131,9.153,166.355-16.358c22.029-10.2,73.77-39.334,78.369-89.465
		C1515.247,773.867,1510.578,755.057,1500.169,736.894z"/>
	<g>
		<path style="fill:#FEE5C4;" d="M427.055,1416.719c-0.019-0.209-0.14-0.394-0.324-0.498c-0.188-0.11-0.411-0.115-0.595-0.015
			c-17.323,8.63-33.031,19.896-50.306,32.662l-3.431,2.541c-15.178,11.256-30.874,22.896-48.552,29.453
			c-19.71,7.28-41.365,6.961-70.235-1.051c-14.2-3.926-28.232-8.875-41.801-13.663c-22.96-8.097-46.7-16.473-71.393-19.846
			c-0.195-0.045-0.381,0.035-0.521,0.165c-0.142,0.13-0.215,0.319-0.202,0.508c0.727,11.486,1.612,23.947,2.777,39.219
			c0.25,3.314,0.499,6.597,0.787,9.911c0.027,0.289,0.242,0.528,0.532,0.573c1.098,0.185,2.196,0.404,3.295,0.618l0.413,0.085
			c19.144,3.832,37.797,10.444,55.835,16.836c23.267,8.246,47.326,16.772,72.711,19.438c4.975,0.528,9.918,0.787,14.843,0.787
			c31.473,0,62.053-10.753,93.023-32.647c6.362-4.489,12.627-9.392,19.261-14.579c10.87-8.5,22.109-17.29,33.971-24.276
			c0.27-0.16,0.386-0.493,0.266-0.787C432.079,1449.012,428.597,1433.725,427.055,1416.719z"/>
		<path style="fill:#FEE5C4;" d="M835.422,1376.996c-13.857,6.607-27.351,15.725-40.107,27.101
			c-9.716,8.67-19.041,18.945-28.915,29.827c-33.26,36.643-67.636,74.533-119.244,52.05c-19.24-8.386-36.98-20.783-54.971-33.823
			c-0.175-0.124-0.396-0.149-0.598-0.08c-0.199,0.075-0.349,0.244-0.397,0.453c-2.977,12.851-7.9,23.728-15.05,33.265
			c-1.557,2.078-3.273,4.106-5.099,6.03c-0.128,0.134-0.19,0.313-0.172,0.498c0.017,0.184,0.114,0.349,0.263,0.458
			c19.01,13.633,40.555,29.08,65.302,38.557c14.153,5.436,27.567,7.873,40.34,7.873c47.698,0,86.487-33.948,121.59-72.36
			c10.8-11.809,21.969-24.027,34.529-34.192c0.157-0.124,0.247-0.319,0.236-0.523c-0.799-16.762,1.023-33.933,2.784-50.54
			l0.419-3.951c0.021-0.229-0.081-0.453-0.267-0.588C835.881,1376.922,835.637,1376.907,835.422,1376.996z"/>
		<path style="fill:#FEE5C4;" d="M1915.134,1341.654c-0.06-0.065-0.124-0.115-0.199-0.155c-2.097-1.081-4.146-2.153-6.144-3.194
			l-4.664-2.437c-29.093-15.148-64.253-29.672-104.478-22.482c-42.373,7.509-77.354,33.888-111.186,59.394
			c-16.951,12.781-34.476,26-52.534,36.464c-31.725,18.407-61.273,24.371-90.318,18.252c-13.378-2.811-27.355-7.51-43.988-14.789
			c-11.186-4.903-22.352-10.434-33.15-15.786c-7.573-3.752-15.407-7.633-23.15-11.246c-31.416-14.634-65.21-27.899-99.904-26.169
			c-8.671,0.448-17.446,1.858-26.081,4.18c-0.273,0.075-0.468,0.319-0.473,0.603c-0.234,11.241-2.401,21.336-6.632,30.863
			c-11.804,26.573-41.417,44.436-70.421,42.388c-9.423-0.653-18.7-3.363-27.58-8.047c-0.214-0.11-0.463-0.09-0.663,0.039
			c-15.731,10.893-37.212,23.32-64.448,23.32c-0.448,0-0.906-0.005-1.359-0.01c-40.132-0.623-76.616-20.683-111.893-40.081
			c-4.305-2.367-8.58-4.719-12.82-7.011c-14.081-7.608-32.782-17.36-52.566-25.257c-0.224-0.085-0.465-0.05-0.643,0.1
			c-0.179,0.149-0.264,0.384-0.219,0.613c3.436,17.878,4.48,34.516,3.099,49.459c-0.025,0.264,0.118,0.518,0.357,0.633
			c11.973,5.8,23.583,12.128,34.81,18.242l4.692,2.551c38.747,21.077,80.309,41.96,124.84,45.673
			c3.907,0.324,7.788,0.488,11.655,0.488c32.766,0,64.198-11.779,95.724-35.806c6.568-5.002,13.223-10.578,19.657-15.974
			c21.391-17.928,43.514-36.469,70.726-41.89c35.388-7.08,72.19,10.329,99.072,23.035l2.526,1.196
			c5.411,2.561,10.823,5.122,16.234,7.649c57.641,26.927,114.54,48.911,176.814,22.667c30.236-12.746,56.489-32.921,81.888-52.439
			c3.129-2.402,6.258-4.808,9.396-7.2l2.073-1.584c26-19.802,55.464-42.244,88.873-48.034c26.274-4.584,56.744,7.639,86.206,19.443
			c3.818,1.53,7.634,3.059,11.446,4.554c0.006,0,0.006,0.005,0.01,0.005c0.17,0.07,0.364,0.06,0.544-0.02
			c0.179-0.094,0.303-0.269,0.333-0.468c1.803-11.585,3.338-21.795,4.689-31.222
			C1915.308,1341.977,1915.254,1341.793,1915.134,1341.654z"/>
		<path style="fill:#FEE5C4;" d="M833.018,863.447c-6.844-6.996-13.309-13.608-15.228-24.775
			c-3.198-18.646,7.467-33.36,17.781-47.59c1.019-1.405,2.037-2.81,3.037-4.215c2.674-3.742,2.644-8.341-0.08-12.312
			c-3.121-4.555-8.707-6.866-13.618-5.606c-30.803,7.913-46.082,42.952-43.061,72.255c1.754,16.996,12.41,41.442,28.706,53.271
			c6.398,4.639,13.062,6.976,19.889,6.976c2.179,0,4.376-0.239,6.587-0.717c3.512-0.757,6.814-3.388,8.832-7.04
			c1.958-3.538,2.402-7.435,1.223-10.693C844.108,874.788,838.469,869.023,833.018,863.447z"/>
		<path style="fill:#FEE5C4;" d="M1069.558,859.66c0.693,0,1.4-0.079,2.123-0.244c5.839-1.331,8.415-4.928,11.4-9.094
			c0.433-0.608,0.887-1.236,1.36-1.878c4.833-6.533,9.507-11.356,14.719-15.178c4.868-3.568,10.459-6.029,15.866-8.411
			c5.9-2.601,12.003-5.292,17.23-9.437c1.455-1.151,2.163-3.149,1.899-5.352c-0.275-2.227-1.5-4.101-3.209-4.878
			c-12.233-5.576-27.659-2.198-44.591,9.736c-11.799,8.326-30.734,24.425-24.968,38.682
			C1062.951,857.473,1065.976,859.66,1069.558,859.66z"/>
	</g>
	<g>
		<path style="fill:#633328;" d="M1369.351,660.474c34.163,1.744,67.766,14.694,94.619,36.469
			c8.022,6.488,15.386,13.753,21.879,21.591c4.988,6.004,9.433,12.397,13.214,18.999c0.105,0.18,0.289,0.299,0.498,0.319
			c90.113,7.439,158.627,16.159,222.157,28.272c0.04,0.005,0.08,0.01,0.12,0.01c0.244,0,0.473-0.145,0.578-0.374
			c0.124-0.264,0.05-0.578-0.179-0.762c-70.023-55.742-128.047-94.603-182.598-122.287c-71.31-36.19-133.669-51.557-190.517-46.918
			c-0.215,0.02-0.399,0.14-0.504,0.324c-0.105,0.179-0.114,0.404-0.019,0.593c10.588,21.72,17.369,42.991,20.155,63.211
			C1368.798,660.225,1369.048,660.459,1369.351,660.474z"/>
		<path style="fill:#633328;" d="M764.373,882.67c0.294-0.124,0.45-0.453,0.357-0.762c-4.178-14.126-5.56-29.568-3.996-44.655
			c0.023-0.22-0.072-0.439-0.252-0.573c-0.177-0.134-0.413-0.169-0.62-0.084c-50.921,20.294-95.674,37.789-136.813,53.475
			c-133.652,51.058-269.94,99.765-405.081,144.774c-27.63,9.193-62.016,20.639-81.549,47.182
			c-9.248,12.607-15.074,28.357-17.818,48.159c-0.039,0.299,0.135,0.588,0.419,0.693c0.394,0.14,0.802,0.264,1.211,0.389
			c0.356,0.11,0.713,0.219,1.058,0.339c28.51,9.861,65.589,15.402,110.212,16.468c38.756,0.882,77.345,1.455,114.693,1.699
			c0.003,0,0.003,0,0.005,0c0.167,0,0.326-0.065,0.446-0.18l1.248-1.221c16.874-16.433,34.324-33.424,52.275-49.075
			c90.87-79.221,205.675-147.659,361.298-215.38L764.373,882.67z"/>
		<path style="fill:#633328;" d="M1868.934,938.019c-0.598-2.337-2.281-4.071-4.618-4.754c-2.492-0.722-5.178-0.095-7.037,1.644
			c-3.089,2.89-5.392,5.989-7.618,8.989c-3.095,4.17-6.014,8.112-10.907,11.555c-8.087,5.695-18.008,8.441-29.194,11.206
			c-17.733,4.375-36.086,7.783-53.834,11.077c-3.643,0.677-7.28,1.35-10.913,2.033c-41.023,7.714-84.681,15.218-141.565,24.346
			c-25.657,4.115-51.857,8.047-77.194,11.853c-69.29,10.404-140.937,21.162-209.973,36.888c-1.979,0.453-2.681,2.252-2.502,3.737
			c0.184,1.514,1.306,3.124,3.345,3.124h0.064c111.156-2.028,225.276-22.652,325.968-40.844
			c51.507-9.313,105.491-19.572,160.455-30.504c33.184-6.602,54.212-16.617,62.494-29.767
			C1869.821,952.39,1870.837,945.463,1868.934,938.019z"/>
		<path style="fill:#633328;" d="M1713.132,792.423c-1.655,1.694-1.963,4.145-0.797,6.233c9.093,16.274,23.16,29.194,36.762,41.686
			c3.798,3.483,7.719,7.085,11.441,10.683c3.807,3.677,7.673,7.549,11.415,11.296c12.984,13.01,26.409,26.463,41.756,36.309
			c0.961,0.613,1.958,0.877,2.925,0.877c1.739,0,3.383-0.852,4.52-2.018c2.058-2.113,2.401-4.938,0.872-7.2
			c-10.275-15.153-24.078-28.262-37.421-40.943c-3.787-3.598-7.698-7.315-11.426-10.982c-3.717-3.658-7.444-7.524-11.051-11.261
			c-12.821-13.289-26.081-27.026-42.558-35.701C1717.407,790.255,1714.826,790.679,1713.132,792.423z"/>
		<path style="fill:#633328;" d="M1209.479,1063.38c-0.124-1.235-1.087-2.182-2.343-2.297c-44.092-4.051-89.45,0.259-133.323,4.415
			c-10.718,1.016-21.799,2.068-32.617,2.97c-60.213,5.037-116.188,8.849-171.126,11.649c-21.408,1.097-42.807,2.233-64.203,3.374
			c-89.603,4.773-182.255,9.711-273.599,10.882c-4.746,0.06-7.182,3.852-7.135,7.569c0.045,3.468,2.265,7.175,7.033,7.175h0.118
			c12.743-0.164,25.489-0.319,38.237-0.468c99.937-1.201,203.279-2.447,304.657-8.82c66.457-4.18,117.69-7.663,166.123-11.296
			c6.656-0.503,13.353-0.976,20.075-1.45c48.906-3.463,99.481-7.046,146.369-21.192
			C1208.916,1065.538,1209.599,1064.551,1209.479,1063.38z"/>
		<path style="fill:#633328;" d="M526.005,1463.567c-25.793-0.922-51.098-6.198-61.52-38.272
			c-7.654-23.558-4.783-48.557-2.008-72.729l0.239-2.093c4.475-39.065,6.141-79.599-26.159-108.231c-3.242-2.87-6.846-2.063-8.979,0
			c-2.16,2.093-3.194,5.895-0.361,9.313c25.245,30.44,21.376,67.955,17.63,104.235c-2.444,23.688-4.97,48.183,0.467,70.765
			c5.215,21.655,24.562,49.125,47.917,57.621c4.651,1.689,9.276,2.531,13.815,2.531c8.104,0,15.93-2.681,23.108-7.992
			c3.096-2.292,4.439-6.199,3.345-9.722C532.488,1465.724,529.685,1463.696,526.005,1463.567z"/>
		<path style="fill:#633328;" d="M919.975,1461.988c-21.119-1.401-40.675-4.669-47.855-28.97
			c-4.841-16.379-1.941-33.519,0.868-50.097c0.391-2.317,0.781-4.629,1.151-6.926c4.745-29.632,8.066-64.801-3.3-100.961
			c-0.772-2.462-2.964-3.298-4.816-3.069c-1.828,0.249-3.717,1.654-3.809,4.235c-0.144,4.101-0.277,8.192-0.409,12.273
			c-1.012,31.102-1.968,60.485-7.501,90.766c-4.118,22.537-7.094,42.822-1.755,62.863c4.722,17.724,24.077,39.708,44.302,42.912
			c1.587,0.254,3.142,0.379,4.661,0.379c9.47,0,17.579-4.853,23.653-14.231c1.104-1.704,1.219-3.717,0.314-5.521
			C924.444,1463.577,922.285,1462.142,919.975,1461.988z"/>
		<path style="fill:#633328;" d="M1264.08,1391.491c-23.982-5.281-46.738-14.709-50.844-47.66
			c-2.402-19.283,2.636-38.083,7.504-56.26c1.679-6.268,3.419-12.751,4.828-19.164c0.573-2.596-1.076-4.515-2.845-5.207
			c-2.049-0.782-4.076-0.06-5.192,1.859c-13.015,22.457-32.283,66.011-15.054,105.38c7.629,17.44,26.335,37.416,48.114,37.416
			c4.425,0,8.975-0.822,13.583-2.661c3.124-1.241,5.272-4.739,4.998-8.132C1268.938,1394.182,1267.08,1392.154,1264.08,1391.491z"/>
		<path style="fill:#633328;" d="M1670.446,1246.916c-5.362-17.778-6.279-37.156-2.821-59.235c0.529-3.373-1.43-5.501-3.602-6.114
			c-2.158-0.598-5.042,0.194-6.358,3.359c-8.267,19.911-9.971,41.89-4.928,63.55c4.076,17.515,11.45,41.168,28.406,44.332
			c0.334,0.06,0.663,0.095,0.987,0.095c0.991,0,1.913-0.299,2.661-0.868c0.981-0.747,1.58-1.918,1.694-3.298
			c0.732-9.178-4.096-17.898-8.77-26.329C1674.905,1257.335,1672,1252.093,1670.446,1246.916z"/>
	</g>
</g>
</svg>
