<?xml version="1.0" encoding="utf-8"?>
<!-- Generator: Adobe Illustrator 27.5.0, SVG Export Plug-In . SVG Version: 6.00 Build 0)  -->
<svg version="1.1" id="Capa_1" xmlns="http://www.w3.org/2000/svg" xmlns:xlink="http://www.w3.org/1999/xlink" x="0px" y="0px"
	 viewBox="0 0 2122 2122" style="enable-background:new 0 0 2122 2122;" xml:space="preserve">
<path style="fill:#F5C59D;" d="M827.483,1422.128c1.864-12.689,6.287-23.243,12.248-31.437c-0.011-0.008-0.023-0.016-0.035-0.024
	c-27.569-19.728-53.878-40.316-91.807-48.348c-15.303-3.24-32.018-4.465-49.273-4.465c-26.781,0-54.857,2.952-80.942,5.904
	c-26.087,2.952-50.181,5.905-69.005,5.905c-16.295,0-28.641-2.213-34.901-8.554c-1.739-1.761-3.299-3.625-4.771-5.545
	c-3.969-23.102-6.849-41.816-8.724-54.642c-0.001-0.001-0.002-0.001-0.003-0.002c13.246,90.657,77.094,477.901,217.857,608.35
	c0.933,0.865,1.996,1.714,3.095,2.558c-42.088-164.941-107.173-427.832-105.863-472.318c0.975-31.983,19.1-52.797,39.987-56.099
	c0.13-0.021,0.26-0.042,0.39-0.061c4.731-0.697,9.59-0.497,14.429,0.68c0.29,0.07,0.58,0.153,0.87,0.23
	c1.304,0.349,2.603,0.771,3.898,1.264c0.309,0.117,0.617,0.224,0.925,0.349c3.086,1.26,6.129,2.932,9.091,5.045
	c0.359,0.256,0.71,0.542,1.067,0.811c1.099,0.829,2.185,1.717,3.258,2.67c0.426,0.378,0.849,0.76,1.27,1.158
	c1.091,1.032,2.161,2.137,3.216,3.302c0.304,0.336,0.616,0.644,0.917,0.991c1.327,1.53,2.62,3.167,3.877,4.918
	c0.272,0.379,0.529,0.8,0.797,1.189c0.974,1.414,1.926,2.89,2.85,4.443c0.383,0.643,0.755,1.308,1.129,1.975
	c0.822,1.469,1.618,3.002,2.394,4.59c0.33,0.677,0.667,1.335,0.988,2.034c1.053,2.289,2.072,4.658,3.022,7.184
	c17.913,47.695,61.529,351.549,83.74,511.831c25.42,5.446,55.535,9.973,88.551,13.562
	C859.449,1766.49,820.637,1468.734,827.483,1422.128z"/>
<path style="fill:#F5C59D;" d="M1539.639,1307.023c-4.595,0-9.228,0.355-13.876,1.076c-23.767,3.688-43.599,17.907-61.198,33.504
	c-17.194,15.236-41.341,27.74-64.498,29.373c-2.642,0.186-5.258,0.275-7.854,0.275c-48.838,0-89.813-31.687-129.413-46.587
	c-44.508-16.746-82.577-25.797-110.162-27.35c-1.737-0.097-3.472-0.145-5.21-0.145c-21.817,0-43.617,7.546-62.145,18.673
	c-37.77,22.681-64.227,59.358-100.595,83.769c-17.873,11.997-39.662,20.757-61.267,22.89c-0.001,0-0.002,0-0.003,0
	c4.36,20.705,8.205,73.507,11.502,139.985c1.294,26.095,2.503,54.297,3.625,83.487c0.624,16.217,1.22,32.74,1.791,49.377
	c2.962,86.482,5.192,176.051,6.64,241.837c32.974,2.18,67.486,3.543,102.24,4.047c-8.665-151.041-27.16-492.895-18.275-546.197
	c6.333-38.079,28.361-54.272,49.888-52.377c0.013,0.001,0.026,0.001,0.04,0.002c1.902,0.169,3.797,0.483,5.681,0.933
	c0.134,0.031,0.265,0.072,0.399,0.105c1.784,0.445,3.553,1.005,5.299,1.698c0.088,0.035,0.177,0.063,0.265,0.098
	c1.761,0.712,3.491,1.56,5.193,2.519c0.25,0.141,0.495,0.295,0.744,0.442c1.559,0.918,3.089,1.926,4.579,3.051
	c0.135,0.102,0.273,0.19,0.408,0.293c1.552,1.196,3.05,2.521,4.507,3.939c0.303,0.295,0.597,0.602,0.896,0.907
	c1.322,1.348,2.606,2.772,3.831,4.304c0.124,0.155,0.255,0.293,0.377,0.449c1.295,1.654,2.513,3.438,3.68,5.298
	c0.275,0.438,0.541,0.887,0.808,1.337c1.08,1.818,2.11,3.703,3.054,5.703c0.064,0.136,0.137,0.258,0.2,0.395
	c0.979,2.107,1.851,4.344,2.664,6.648c0.198,0.561,0.388,1.128,0.575,1.701c0.778,2.376,1.499,4.813,2.086,7.385
	c2.485,10.88,3.524,36.071,3.537,70.391c0.046,122.568-12.996,361.571-19.994,480.988c34.218-0.494,67.899-1.848,99.763-4.09
	c3.349-155.626,11.87-485.031,24.613-536.366c2.508-10.093,6.052-18.457,10.272-25.306c0,0,0,0-0.001,0
	c0.004-0.007,0.009-0.013,0.013-0.02c10.374-16.823,24.952-24.157,39.184-23.429c0.12,0.005,0.24,0.006,0.36,0.013
	c0.927,0.056,1.849,0.154,2.771,0.278c0.257,0.034,0.513,0.069,0.769,0.109c0.857,0.133,1.709,0.291,2.559,0.482
	c0.312,0.07,0.623,0.15,0.934,0.228c0.818,0.204,1.632,0.42,2.442,0.678c0.315,0.1,0.627,0.221,0.94,0.329
	c0.813,0.281,1.624,0.562,2.425,0.897c0.06,0.025,0.12,0.057,0.18,0.083c1.622,0.687,3.209,1.502,4.77,2.404
	c0.449,0.259,0.902,0.501,1.345,0.777c0.56,0.351,1.107,0.738,1.657,1.116c0.521,0.358,1.042,0.713,1.553,1.096
	c0.508,0.381,1.007,0.784,1.505,1.189c0.537,0.436,1.069,0.883,1.593,1.347c0.462,0.41,0.919,0.828,1.371,1.26
	c0.548,0.522,1.084,1.067,1.615,1.62c0.41,0.428,0.821,0.85,1.22,1.296c0.581,0.648,1.141,1.33,1.7,2.016
	c0.325,0.4,0.659,0.783,0.975,1.196c0.856,1.114,1.686,2.267,2.479,3.475c0.083,0.126,0.156,0.264,0.239,0.392
	c0.714,1.107,1.403,2.249,2.062,3.432c0.245,0.44,0.471,0.905,0.708,1.356c0.474,0.902,0.94,1.813,1.38,2.755
	c0.251,0.538,0.487,1.092,0.727,1.643c0.394,0.906,0.775,1.827,1.137,2.769c0.227,0.591,0.447,1.187,0.661,1.792
	c0.34,0.962,0.659,1.945,0.965,2.942c0.188,0.61,0.379,1.215,0.553,1.839c0.308,1.101,0.583,2.233,0.849,3.374
	c0.128,0.549,0.27,1.084,0.388,1.642c0.36,1.707,0.682,3.448,0.943,5.24c0.002,0.007,0.003,0.014,0.004,0.021
	c0.558,3.778,0.814,9.211,0.802,16.096c-0.062,35.797-7.375,110.819-17.271,196.176c-2.664,22.98-5.516,46.71-8.464,70.626
	c-2.948,23.915-5.992,48.015-9.04,71.738c-0.872,6.778-1.743,13.524-2.613,20.227c-7.391,56.958-14.659,110.734-20.499,153.263
	c30.554-3.703,58.007-8.447,80.9-14.254c21.847-158.317,66.483-470.108,84.615-518.387c6.212-16.524,14.771-27.879,24.205-34.817
	c0,0,0,0,0.001,0c9.354-6.879,19.563-9.377,29.243-8.104c0.017,0.003,0.035,0.005,0.053,0.008c1.922,0.256,3.823,0.651,5.691,1.199
	c0.002,0,0.005,0.001,0.008,0.002c1.826,0.535,3.615,1.213,5.368,2.017c0.143,0.065,0.281,0.139,0.422,0.205
	c1.662,0.786,3.288,1.677,4.864,2.698c0.064,0.042,0.131,0.077,0.195,0.119c1.585,1.039,3.114,2.207,4.593,3.476
	c0.227,0.195,0.446,0.4,0.67,0.6c1.355,1.209,2.666,2.499,3.912,3.898c0.099,0.111,0.204,0.211,0.302,0.323
	c1.291,1.476,2.504,3.07,3.658,4.745c0.239,0.346,0.468,0.702,0.7,1.057c1.045,1.594,2.036,3.253,2.947,5.01
	c0.08,0.156,0.172,0.299,0.251,0.456c0.95,1.876,1.798,3.863,2.581,5.916c0.185,0.483,0.359,0.973,0.533,1.466
	c0.71,2.003,1.359,4.063,1.899,6.219c0.032,0.13,0.075,0.25,0.107,0.381c0.551,2.256,0.972,4.618,1.322,7.033
	c0.086,0.59,0.162,1.184,0.235,1.784c0.302,2.478,0.535,5.005,0.613,7.637c0.021,0.682,0.028,1.414,0.018,2.197
	c-0.26,21.921-12.505,83.136-29.675,158.677c-4.292,18.885-8.893,38.666-13.69,58.952c-2.056,8.694-4.148,17.481-6.268,26.33
	c-9.186,38.346-18.891,77.858-28.406,116.038c-1.464,5.874-2.923,11.716-4.376,17.518c-2.179,8.702-4.341,17.313-6.479,25.802
	c-2.138,8.489-4.252,16.856-6.332,25.07c-1.387,5.476-2.759,10.884-4.114,16.215c-1.35,5.31-2.681,10.543-3.994,15.691
	c104.489-124.445,155.062-410.635,173.542-543.09c-5.162-4.17-10.504-8.111-16.266-11.475
	C1571.684,1311.467,1555.896,1307.023,1539.639,1307.023z"/>
<path style="fill:#F3B27D;" d="M1047.854,1356.317c-7.866,8.622-14.026,21.378-16.911,38.722
	c-8.885,53.302,9.609,395.156,18.275,546.197c0,0.008,0.001,0.017,0.001,0.026c1.405,0.02,2.819,0.012,4.225,0.03
	c7.04,0.088,14.094,0.137,21.151,0.153c2.84,0.006,5.671,0.013,8.512,0.008c2.934-0.005,5.86-0.046,8.792-0.064
	c9.195-158.341,26.829-490.907,15.757-539.384C1099.428,1365.973,1071.602,1348.932,1047.854,1356.317z"/>
<path style="fill:#F3B27D;" d="M1244.309,1375.487c-4.22,6.849-7.764,15.213-10.272,25.306
	c-12.743,51.336-21.264,380.74-24.613,536.366c0,0.008,0,0.017,0,0.025c15.707-1.096,30.977-2.425,45.648-3.97
	c22.5-164.729,61.637-464.367,54.747-511.056C1303.779,1380.729,1270.689,1361.654,1244.309,1375.487z"/>
<path style="fill:#F3B27D;" d="M1461.919,1363.79c-9.434,6.938-17.993,18.294-24.205,34.817
	c-18.131,48.279-62.767,360.07-84.615,518.387c-0.001,0.006-0.002,0.013-0.002,0.019c0.512-0.13,0.978-0.269,1.486-0.4
	c2.489-0.64,4.912-1.295,7.286-1.961c1.11-0.311,2.215-0.624,3.299-0.941c1.169-0.342,2.275-0.698,3.414-1.047
	c10.246-4.563,18.286-9.56,23.692-15.002c4.588-4.588,8.957-9.467,13.4-14.71l0.073-0.073
	c42.163-165.376,104.714-418.934,103.331-462.553C1508.035,1384.714,1485.683,1362.935,1461.919,1363.79z"/>
<path style="fill:#F3B27D;" d="M900.099,1421.711c-11.164-1.937-21.795-6.093-31.994-12.134
	c-9.912-5.871-19.214-12.332-28.375-18.886c-5.961,8.195-10.384,18.749-12.248,31.437c-6.845,46.606,31.967,344.366,54.542,509.449
	c9.436,1.033,19.158,1.981,29.057,2.862c3.898,0.347,7.842,0.674,11.8,0.998c0.058,0.005,0.116,0.01,0.174,0.014
	c0.57,0.047,1.159,0.085,1.731,0.131c-3.635-163.351-11.881-462.843-24.043-511.56
	C900.542,1423.226,900.31,1422.486,900.099,1421.711z"/>
<path style="fill:#F3B27D;" d="M690.552,1414.268c-12.365-32.89-33.966-45.467-53.392-42.927c1.264-0.964,2.574-1.828,3.906-2.632
	c-14.273,8.603-24.965,26.45-25.708,50.799c-1.31,44.486,63.774,307.378,105.863,472.318c0.005,0.021,0.01,0.042,0.016,0.064
	c0.146,0.111,0.313,0.22,0.461,0.331c0.1,0.075,0.211,0.149,0.312,0.224c1.188,0.876,2.468,1.74,3.833,2.593
	c0.152,0.095,0.293,0.191,0.447,0.285c1.417,0.872,2.93,1.731,4.527,2.58c0.291,0.155,0.593,0.308,0.89,0.462
	c1.462,0.758,2.984,1.508,4.584,2.247c0.231,0.107,0.446,0.215,0.68,0.321c1.688,0.768,3.468,1.523,5.302,2.27
	c0.576,0.235,1.161,0.468,1.752,0.701c1.672,0.66,3.388,1.313,5.172,1.956c0.621,0.224,1.258,0.446,1.893,0.668
	c1.611,0.564,3.267,1.122,4.962,1.673c0.805,0.262,1.611,0.523,2.435,0.782c2.038,0.641,4.12,1.276,6.271,1.9
	c0.714,0.207,1.457,0.409,2.183,0.615c1.824,0.515,3.685,1.025,5.584,1.529c0.706,0.187,1.406,0.376,2.122,0.561
	c2.561,0.664,5.188,1.315,7.874,1.956c0.345,0.083,0.699,0.163,1.047,0.245c3.21,0.758,6.484,1.506,9.863,2.233
	c-7.42-1.598-14.372-3.283-20.957-5.03C749.775,1749.82,707.989,1460.698,690.552,1414.268z"/>
<path style="fill:#E1955E;" d="M1124.031,1382.485c-0.188-0.572-0.377-1.139-0.575-1.701c-0.813-2.303-1.685-4.541-2.664-6.648
	c-0.063-0.137-0.136-0.259-0.2-0.395c-0.944-1.999-1.975-3.886-3.054-5.703c-0.267-0.45-0.533-0.898-0.808-1.337
	c-1.167-1.86-2.384-3.644-3.68-5.298c-0.122-0.156-0.253-0.295-0.377-0.449c-1.225-1.532-2.509-2.957-3.831-4.304
	c-0.299-0.304-0.593-0.612-0.896-0.907c-1.457-1.416-2.956-2.745-4.507-3.939c-0.134-0.103-0.273-0.191-0.408-0.293
	c-1.49-1.123-3.02-2.134-4.579-3.051c-0.249-0.147-0.494-0.3-0.744-0.442c-1.701-0.958-3.432-1.81-5.193-2.519
	c-0.088-0.036-0.177-0.063-0.265-0.098c-1.746-0.691-3.515-1.254-5.299-1.698c-0.133-0.033-0.265-0.073-0.399-0.105
	c-1.883-0.448-3.779-0.766-5.681-0.933c-0.013-0.001-0.026-0.001-0.04-0.002c-11.719-1.019-23.587,3.334-32.99,13.658
	c23.75-7.396,51.586,9.647,59.815,45.686c11.073,48.477-6.562,381.043-15.757,539.384c4.719-0.028,9.436-0.055,14.147-0.102
	c1.203-0.012,2.412-0.009,3.613-0.026c0-0.005,0-0.009,0.001-0.014c6.998-119.418,20.039-358.421,19.994-480.988
	c-0.013-34.32-1.052-59.511-3.537-70.391C1125.53,1387.299,1124.809,1384.861,1124.031,1382.485z"/>
<path style="fill:#E1955E;" d="M1329.28,1403.102c-0.261-1.792-0.583-3.533-0.943-5.24c-0.118-0.558-0.26-1.094-0.388-1.642
	c-0.266-1.141-0.541-2.272-0.849-3.374c-0.174-0.623-0.365-1.229-0.553-1.839c-0.306-0.997-0.625-1.98-0.965-2.942
	c-0.214-0.605-0.434-1.201-0.661-1.792c-0.362-0.942-0.743-1.862-1.137-2.769c-0.24-0.551-0.476-1.105-0.727-1.643
	c-0.441-0.943-0.906-1.853-1.38-2.755c-0.237-0.451-0.463-0.916-0.708-1.356c-0.659-1.182-1.347-2.325-2.062-3.432
	c-0.082-0.127-0.156-0.266-0.239-0.392c-0.793-1.208-1.624-2.362-2.479-3.475c-0.317-0.413-0.651-0.796-0.975-1.196
	c-0.558-0.686-1.119-1.368-1.7-2.016c-0.4-0.445-0.811-0.869-1.22-1.296c-0.531-0.554-1.067-1.098-1.615-1.62
	c-0.452-0.431-0.909-0.85-1.371-1.26c-0.524-0.464-1.056-0.911-1.593-1.347c-0.498-0.405-0.996-0.809-1.505-1.189
	c-0.511-0.383-1.033-0.738-1.553-1.096c-0.55-0.378-1.097-0.766-1.657-1.116c-0.443-0.276-0.896-0.518-1.345-0.777
	c-1.561-0.901-3.148-1.719-4.77-2.404c-0.06-0.026-0.12-0.058-0.18-0.083c-0.801-0.334-1.612-0.617-2.425-0.897
	c-0.314-0.108-0.625-0.229-0.94-0.329c-0.809-0.256-1.624-0.474-2.442-0.678c-0.311-0.078-0.622-0.158-0.934-0.228
	c-0.85-0.19-1.702-0.35-2.559-0.482c-0.256-0.039-0.512-0.074-0.769-0.109c-0.921-0.123-1.845-0.223-2.771-0.278
	c-0.12-0.007-0.24-0.008-0.36-0.013c-14.222-0.709-28.814,6.614-39.184,23.429c-0.004,0.007-0.009,0.013-0.013,0.02
	c0,0,0.001,0,0.001,0c26.38-13.833,59.471,5.242,65.509,46.671c6.891,46.688-32.247,346.327-54.747,511.056v0
	c0.007-0.001,0.014-0.001,0.021-0.002c5.794-0.611,11.517-1.246,17.103-1.926c5.842-42.535,13.111-96.327,20.504-153.301
	c0.87-6.703,1.741-13.449,2.613-20.227c3.048-23.722,6.092-47.823,9.04-71.738c2.948-23.915,5.799-47.645,8.464-70.626
	c9.896-85.357,17.208-160.379,17.271-196.176c0.012-6.884-0.244-12.317-0.802-16.095
	C1329.283,1403.116,1329.282,1403.109,1329.28,1403.102z"/>
<path style="fill:#E1955E;" d="M1532.089,1411.935c-0.077-2.632-0.311-5.16-0.613-7.638c-0.073-0.599-0.15-1.193-0.235-1.784
	c-0.35-2.415-0.771-4.778-1.322-7.033c-0.032-0.13-0.074-0.251-0.107-0.381c-0.54-2.156-1.189-4.217-1.899-6.219
	c-0.175-0.492-0.349-0.983-0.533-1.466c-0.784-2.052-1.631-4.041-2.581-5.916c-0.08-0.157-0.171-0.3-0.251-0.456
	c-0.911-1.757-1.902-3.418-2.947-5.01c-0.232-0.355-0.461-0.711-0.7-1.057c-1.155-1.674-2.367-3.271-3.658-4.745
	c-0.098-0.112-0.203-0.212-0.302-0.323c-1.246-1.397-2.557-2.691-3.912-3.898c-0.224-0.2-0.443-0.405-0.67-0.6
	c-1.479-1.268-3.008-2.44-4.593-3.476c-0.064-0.042-0.131-0.077-0.195-0.119c-1.576-1.019-3.203-1.914-4.864-2.698
	c-0.141-0.066-0.279-0.14-0.422-0.205c-1.752-0.802-3.542-1.484-5.368-2.017c-0.002-0.001-0.005-0.002-0.008-0.002
	c-1.868-0.546-3.769-0.945-5.691-1.199c-0.018-0.003-0.036-0.005-0.053-0.008c-9.675-1.263-19.893,1.228-29.243,8.104
	c0,0,0,0-0.001,0c23.764-0.855,46.116,20.924,47.159,56.538c1.383,43.619-61.167,297.177-103.331,462.553l-0.073,0.073
	c-4.443,5.243-8.811,10.121-13.4,14.71c-5.406,5.442-13.446,10.439-23.692,15.002c-0.001,0-0.002,0.001-0.004,0.002
	c0.013-0.004,0.023-0.008,0.035-0.011c10.077-3.087,18.928-6.443,26.468-10.052c0.668-0.32,1.359-0.635,2.006-0.959
	c1.229-0.616,2.377-1.246,3.526-1.877c0.983-0.539,1.942-1.083,2.866-1.633c0.911-0.543,1.797-1.091,2.65-1.645
	c1.105-0.717,2.133-1.448,3.137-2.183c0.604-0.443,1.235-0.88,1.802-1.328c1.302-1.031,2.492-2.081,3.593-3.146
	c0.195-0.189,0.435-0.371,0.624-0.561c4.589-4.588,8.957-9.467,13.4-14.71l0.073-0.073c0.005-0.021,0.011-0.042,0.016-0.062
	c1.313-5.148,2.644-10.381,3.994-15.691c1.355-5.331,2.727-10.739,4.114-16.215c2.08-8.214,4.194-16.581,6.332-25.07
	c2.138-8.489,4.301-17.1,6.479-25.802c1.452-5.802,2.912-11.644,4.376-17.518c9.515-38.18,19.219-77.692,28.406-116.038
	c2.12-8.849,4.212-17.636,6.268-26.33c4.797-20.286,9.398-40.067,13.69-58.952c17.17-75.542,29.414-136.756,29.675-158.677
	C1532.116,1413.349,1532.11,1412.616,1532.089,1411.935z"/>
<path style="fill:#E1955E;" d="M938.547,1645.975c-1.122-29.19-2.332-57.392-3.625-83.487
	c-3.296-66.478-7.141-119.28-11.502-139.985c-0.508,0.05-1.018,0.097-1.526,0.139c-2.476,0.208-4.925,0.311-7.35,0.311
	c-4.901,0-9.699-0.42-14.403-1.233c-0.014-0.002-0.028-0.007-0.042-0.01c0.211,0.775,0.443,1.515,0.642,2.311
	c12.162,48.718,20.41,348.222,24.043,511.571c7.283,0.587,14.622,1.147,22.068,1.654c0.043,0.003,0.084,0.007,0.127,0.01v0
	c-1.449-65.793-3.679-155.393-6.642-241.905C939.767,1678.714,939.17,1662.192,938.547,1645.975z"/>
<path style="fill:#E1955E;" d="M706.711,1398.997c-0.321-0.698-0.658-1.357-0.988-2.034c-0.775-1.588-1.571-3.122-2.394-4.59
	c-0.374-0.667-0.746-1.332-1.129-1.975c-0.924-1.552-1.876-3.03-2.85-4.443c-0.268-0.39-0.525-0.81-0.797-1.189
	c-1.257-1.751-2.55-3.389-3.877-4.918c-0.301-0.347-0.613-0.655-0.917-0.991c-1.055-1.165-2.126-2.271-3.216-3.302
	c-0.421-0.398-0.845-0.779-1.27-1.158c-1.072-0.952-2.158-1.842-3.258-2.67c-0.357-0.269-0.708-0.555-1.067-0.811
	c-2.962-2.11-6.006-3.788-9.091-5.045c-0.308-0.125-0.616-0.232-0.925-0.349c-1.295-0.492-2.594-0.916-3.898-1.264
	c-0.29-0.077-0.58-0.16-0.87-0.23c-4.836-1.172-9.7-1.381-14.429-0.68c-0.13,0.019-0.26,0.04-0.39,0.061
	c-6.469,1.028-12.675,3.728-18.185,7.932c19.426-2.541,41.027,10.037,53.392,42.927c17.437,46.43,59.223,335.552,81.919,498.724
	c6.585,1.747,13.537,3.432,20.957,5.03c0.016,0.004,0.031,0.007,0.048,0.011l0,0c-22.21-160.278-65.83-464.155-83.743-511.852
	C708.784,1403.656,707.764,1401.286,706.711,1398.997z"/>
<path style="fill:#F0A37F;" d="M1604.352,1299.801c-1.257-0.055-2.535-0.147-3.822-0.252c-1.065-0.087-2.128-0.173-3.213-0.294
	c-1.403-0.157-2.837-0.367-4.275-0.583c-1.023-0.154-2.035-0.289-3.074-0.473c-1.65-0.292-3.341-0.656-5.035-1.026
	c-0.88-0.191-1.74-0.349-2.632-0.562c-2.612-0.625-5.266-1.328-7.98-2.141c-17.024-5.1-31.344-6.67-44.064-5.861
	c-0.306,0.019-0.602,0.052-0.906,0.074c-5.162,0.377-10.05,1.168-14.762,2.255c-4.153,0.957-8.17,2.148-12.081,3.544
	c-0.932,0.333-1.865,0.667-2.787,1.021c-20.236,7.763-38.246,20.414-61.27,30.442c-2.409,1.049-4.875,2.065-7.402,3.047
	c-12.044,4.68-25.538,8.495-41.379,10.522c-4.891,0.626-9.984,1.097-15.351,1.354c-3.314,0.158-6.709,0.252-10.221,0.252h0
	c-33.846,0-60.184-6.969-83.634-16.236c-3.225-1.275-6.397-2.59-9.525-3.94c-1.651-0.713-3.292-1.434-4.921-2.163
	c-42.639-19.073-78.28-42.964-138.395-39.8c-5.484,0.289-10.765,0.822-15.916,1.515c-1.59,0.214-3.159,0.453-4.721,0.703
	c-3.518,0.562-6.963,1.212-10.342,1.942c-61.967,13.381-101.909,53.51-162.564,69.041c-3.361,0.861-6.789,1.639-10.285,2.339
	c-4.755,0.953-9.642,1.748-14.678,2.366c-7.91,0.97-16.156,1.54-24.876,1.546c-66.077,0.039-82.638-50.583-125.406-62.033
	c-3.421-0.916-7.01-1.582-10.806-1.95c-1.898-0.184-3.848-0.294-5.854-0.325c-2.211-0.033-4.507,0.055-6.861,0.224
	c-3.68,0.263-7.558,0.8-11.631,1.605c-1.176,0.233-2.387,0.513-3.599,0.794c-1.649,0.383-3.284,0.745-5.002,1.22
	c-2.014,0.557-4.142,1.052-6.212,1.578c-18.983,4.831-40.175,8.417-62.053,10.109c-19.412,1.501-39.298,1.55-58.478-0.24
	c-4.795-0.447-9.546-1.01-14.234-1.693c-28.13-4.099-54.006-12.552-73.645-26.659c-0.062-0.044-0.128-0.097-0.19-0.142
	c1.875,12.826,4.756,31.541,8.724,54.642c1.472,1.919,3.033,3.784,4.771,5.545c6.261,6.341,18.607,8.554,34.901,8.554
	c18.824,0,42.918-2.953,69.005-5.905c26.085-2.952,54.161-5.904,80.942-5.904c17.255,0,33.97,1.225,49.273,4.465
	c37.929,8.032,64.238,28.62,91.807,48.348c4.948-6.807,10.992-11.898,17.544-15.222c-0.028-0.003-0.056-0.01-0.084-0.013
	c0.528-0.269,1.076-0.465,1.611-0.71c0.798-0.366,1.589-0.745,2.4-1.058c0.714-0.275,1.439-0.484,2.162-0.717
	c0.821-0.265,1.636-0.554,2.467-0.764c0.733-0.186,1.475-0.294,2.215-0.437c0.835-0.161,1.663-0.357,2.503-0.461
	c0.749-0.094,1.503-0.099,2.255-0.148c0.812-0.052,1.621-0.16,2.435-0.16c17.882-0.003,36.022,12.748,45.375,41.105
	c0.81,2.455,1.554,5.025,2.226,7.716c0.207,0.831,0.413,1.731,0.618,2.705c21.604-2.133,43.394-10.894,61.267-22.89
	c36.367-24.411,62.825-61.088,100.595-83.769c18.528-11.128,40.328-18.673,62.145-18.673c1.738,0,3.473,0.048,5.21,0.145
	c27.585,1.552,65.654,10.604,110.162,27.35c39.6,14.9,80.575,46.587,129.413,46.587c2.596,0,5.212-0.089,7.854-0.275
	c23.156-1.633,47.304-14.137,64.498-29.373c17.599-15.597,37.431-29.817,61.198-33.504c4.648-0.721,9.281-1.076,13.876-1.076
	c16.257,0,32.045,4.443,46.41,12.836c5.762,3.365,11.104,7.305,16.266,11.475c0,0,0,0,0.001,0c0.014-0.098,0.026-0.189,0.039-0.287
	c0.403-2.89,0.792-5.713,1.164-8.453c0.004-0.028,0.008-0.057,0.012-0.085c1.125-8.278,2.108-15.83,2.964-22.613
	C1605.791,1299.88,1605.067,1299.832,1604.352,1299.801z"/>
<path style="fill:#EE9367;" d="M865.796,1372.183c-0.831,0.21-1.645,0.499-2.467,0.764
	C864.15,1372.682,864.966,1372.393,865.796,1372.183z"/>
<path style="fill:#EE9367;" d="M868.106,1409.577c10.199,6.041,20.83,10.197,31.994,12.134c0.014,0.003,0.028,0.007,0.042,0.01
	c-8.111-29.833-25.298-44.34-42.901-46.276c-6.553,3.323-12.596,8.415-17.544,15.222c0.011,0.009,0.023,0.016,0.035,0.024
	C848.891,1397.245,858.194,1403.707,868.106,1409.577z"/>
<path style="fill:#EE9367;" d="M870.514,1371.285c-0.84,0.105-1.669,0.301-2.503,0.461
	C868.844,1371.586,869.674,1371.39,870.514,1371.285z"/>
<path style="fill:#EE9367;" d="M858.768,1374.721c0.797-0.366,1.59-0.745,2.4-1.058
	C860.357,1373.976,859.566,1374.356,858.768,1374.721z"/>
<path style="fill:#EE9367;" d="M875.214,1370.987c17.876,0,36.015,12.749,45.365,41.095c-9.353-28.356-27.493-41.108-45.375-41.105
	c-0.814,0-1.622,0.107-2.435,0.16C873.584,1371.084,874.397,1370.987,875.214,1370.987z"/>
<path style="fill:#DE7C4E;" d="M900.141,1421.721c4.704,0.814,9.502,1.233,14.403,1.233c2.425,0,4.874-0.103,7.35-0.311
	c0.508-0.042,1.018-0.089,1.526-0.139c0,0,0.002,0,0.003,0c-0.205-0.974-0.411-1.874-0.618-2.705
	c-0.672-2.691-1.415-5.261-2.226-7.716c-9.35-28.346-27.49-41.095-45.365-41.095c-0.817,0-1.629,0.097-2.444,0.15
	c-0.752,0.049-1.506,0.054-2.255,0.148c-0.84,0.105-1.67,0.301-2.503,0.461c-0.739,0.142-1.482,0.251-2.215,0.437
	c-0.83,0.21-1.646,0.499-2.467,0.764c-0.722,0.233-1.448,0.442-2.162,0.717c-0.81,0.312-1.602,0.692-2.4,1.058
	c-0.535,0.245-1.083,0.442-1.611,0.71c0.028,0.003,0.056,0.01,0.084,0.013C874.843,1377.381,892.031,1391.887,900.141,1421.721z"/>
<path style="fill:#E97F8C;" d="M1690.725,1177.14c-8.147-63.173-35.365-116.904-86.022-147.866
	c0.199,35.043-11.407,67.868-34.492,94.632c-28.986,33.605-67.826,56.69-110.02,69.677c-47.74,14.694-97.142,14.116-146.502,10.583
	c-50.96-3.648-101.786-8.795-152.879-10.41c-52.371-1.655-104.78-0.236-157.096,2.398c-102.423,5.156-205.67,19.251-307.122-2.823
	c-44.824-9.753-90.895-25.396-126.064-56.012c-7.555-6.578-14.424-13.769-20.491-21.558c-10.638-7.482-19.161-16.375-25.004-26.977
	c-0.015-0.027-0.027-0.055-0.042-0.083c-1.857-3.372-3.586-6.762-5.252-10.16c-0.486-0.99-0.951-1.983-1.42-2.974
	c-1.257-2.657-2.456-5.321-3.6-7.992c-0.374-0.873-0.765-1.744-1.127-2.619c-1.423-3.44-2.764-6.891-4.004-10.353
	c-0.228-0.637-0.428-1.276-0.65-1.913c-0.75-2.153-1.492-4.307-2.173-6.468c-32.842,17.966-57.869,40.529-69.581,68.778
	c-6.985,16.844-8.803,33.765-7.189,50.096c59.399,171.968,254.282,101.12,325.806,109.702
	c86.519,10.382,132.923,82.245,191.179,67.681c58.256-21.846,68.234-85.417,119.207-99.981
	c101.948-36.41,182.05,50.974,269.434,87.384c29.128,7.282,69.071,4.614,102.813-11.825
	c33.742-16.438,80.534-105.264,131.508-76.137c26.607,14.327,46.694,41.485,93.544,35.398
	C1687.07,1252.787,1695.275,1212.416,1690.725,1177.14z"/>
<path style="fill:#E76975;" d="M570.527,1137.318c35.169,30.616,81.24,46.259,126.064,56.012
	c101.452,22.075,204.699,7.979,307.122,2.823c52.316-2.634,104.725-4.054,157.096-2.398c51.093,1.615,101.919,6.762,152.879,10.41
	c49.36,3.533,98.762,4.111,146.502-10.583c42.193-12.987,81.033-36.072,110.02-69.677c23.103-26.785,34.712-59.637,34.495-94.711
	c-5.195-3.173-10.656-6.087-16.344-8.771c-2.873,5.287-6.08,10.322-9.62,15.092c-1.265,1.703-2.569,3.375-3.91,5.016
	c-5.368,6.562-11.341,12.627-17.792,18.247s-13.38,10.794-20.659,15.574c-7.28,4.78-14.911,9.166-22.765,13.208
	c-1.964,1.011-3.941,2-5.93,2.969c-27.854,13.56-58.06,23.073-85.171,30.733c-58.926,16.651-119.006,27.648-179.512,33.361
	c-3.014,0.284-6.027,0.563-9.043,0.822c-24.843,2.126-49.75,3.385-74.675,3.738c-9.37,0.133-18.742,0.157-28.113,0.043
	c-19.683-0.24-39.36-1.077-59.016-2.393c-24.87-1.665-49.702-4.131-74.44-7.486c-39.596-5.371-108.046-0.621-181.124,1.914
	c-5.888,0.205-11.807,0.395-17.742,0.563c-9.288,0.265-18.618,0.479-27.942,0.616c-3.077,0.045-6.154,0.083-9.228,0.111
	c-6.148,0.056-12.287,0.075-18.402,0.051c-9.172-0.036-18.292-0.171-27.312-0.427c-6.013-0.172-11.982-0.397-17.892-0.684
	c-8.633-0.419-17.136-0.973-25.476-1.676c-0.489-0.041-0.975-0.084-1.463-0.126c-5.433-0.471-10.797-1.003-16.072-1.613
	c-5.139-0.593-10.189-1.263-15.155-1.999c-36.347-5.386-67.749-14.758-89.87-30.317
	C556.103,1123.55,562.972,1130.741,570.527,1137.318z"/>
<path style="fill:#E76975;" d="M1569.942,1241.921c-50.974-29.128-97.766,59.698-131.508,76.137
	c-33.742,16.438-73.685,19.107-102.813,11.825c-87.384-36.41-167.486-123.794-269.434-87.384
	c-50.973,14.564-60.951,78.135-119.207,99.981c-58.256,14.564-104.66-57.299-191.179-67.681
	c-71.537-8.584-266.478,62.294-325.839-109.793c2.878,29.418,17.097,56.902,33.327,78.441c0.029,0.039,0.06,0.078,0.089,0.117
	c3.528,4.675,7.149,9.063,10.77,13.135c0.166,0.187,0.331,0.369,0.497,0.555c3.478,3.884,6.948,7.464,10.33,10.713
	c0.284,0.273,0.565,0.537,0.848,0.806c1.616,1.533,3.217,3.009,4.78,4.382c0.018,0.017,0.037,0.035,0.056,0.051
	c1.57,1.378,3.096,2.648,4.592,3.856c0.319,0.257,0.632,0.507,0.947,0.757c1.463,1.159,2.898,2.261,4.266,3.244
	c19.638,14.107,45.514,22.56,73.644,26.659c4.689,0.683,9.439,1.246,14.234,1.693c19.18,1.79,39.067,1.741,58.478,0.24
	c21.878-1.692,43.07-5.277,62.053-10.109c2.07-0.527,4.198-1.021,6.212-1.578c1.717-0.475,3.352-0.837,5.002-1.22
	c1.211-0.281,2.423-0.562,3.599-0.794c4.073-0.805,7.95-1.342,11.631-1.605c2.354-0.169,4.65-0.256,6.861-0.224
	c2.006,0.031,3.955,0.141,5.854,0.325c3.796,0.368,7.385,1.034,10.806,1.95c42.768,11.449,59.33,62.073,125.407,62.032
	c8.719-0.005,16.966-0.575,24.875-1.545c5.036-0.618,9.923-1.414,14.678-2.366c3.495-0.7,6.924-1.479,10.285-2.339
	c60.655-15.531,100.597-55.661,162.564-69.041c3.38-0.73,6.825-1.38,10.342-1.942c1.561-0.25,3.131-0.489,4.721-0.703
	c5.151-0.693,10.432-1.227,15.916-1.515c60.115-3.164,95.756,20.727,138.395,39.8c1.629,0.729,3.27,1.45,4.921,2.163
	c3.127,1.35,6.3,2.666,9.525,3.94c23.45,9.268,49.789,16.236,83.634,16.236c3.512,0,6.907-0.094,10.221-0.252
	c5.367-0.257,10.46-0.727,15.351-1.354c15.842-2.027,29.336-5.842,41.379-10.522c2.527-0.982,4.994-1.998,7.402-3.047
	c23.024-10.027,41.033-22.678,61.27-30.442c0.922-0.354,1.855-0.688,2.787-1.021c3.911-1.396,7.928-2.586,12.081-3.544
	c4.712-1.087,9.6-1.878,14.762-2.255c0.304-0.022,0.6-0.055,0.906-0.074c12.72-0.81,27.04,0.76,44.064,5.861
	c2.714,0.813,5.369,1.517,7.98,2.141c0.891,0.214,1.752,0.37,2.632,0.562c1.694,0.37,3.385,0.734,5.035,1.026
	c1.04,0.184,2.052,0.32,3.074,0.473c1.437,0.216,2.871,0.426,4.275,0.583c1.085,0.121,2.149,0.208,3.213,0.294
	c1.286,0.105,2.565,0.197,3.822,0.252c1.1,0.048,2.186,0.076,3.263,0.087c1.162,0.012,2.309,0.003,3.446-0.027
	c1.106-0.029,2.207-0.066,3.289-0.135c1.039-0.065,2.058-0.161,3.075-0.262c1.124-0.111,2.249-0.221,3.345-0.374
	c0.882-0.123,1.74-0.283,2.604-0.434c1.176-0.205,2.359-0.398,3.503-0.652c0.6-0.133,1.174-0.301,1.765-0.447
	c6.651-1.642,12.756-4.081,18.301-7.234c0.159-0.091,0.325-0.173,0.483-0.265c1.341-0.776,2.642-1.603,3.919-2.458
	c0.2-0.134,0.404-0.263,0.603-0.399c1.265-0.867,2.497-1.774,3.698-2.716c0.173-0.135,0.347-0.27,0.519-0.408
	c1.221-0.974,2.411-1.983,3.567-3.03c0.112-0.101,0.222-0.205,0.333-0.307c1.207-1.108,2.383-2.248,3.518-3.431
	C1616.662,1283.451,1596.569,1256.259,1569.942,1241.921z"/>
<path style="fill:#F6B6B6;" d="M1574.707,779.687c-0.048,0.107-0.1,0.211-0.149,0.317c-0.229,0.502-0.461,1.002-0.703,1.497
	c-8.223,43.728-42.128,75.626-92.594,60.487c-36.409-14.563-61.428-70.296-109.229-43.692
	c-21.776,12.12-23.903,38.747-19.789,70.325c22.718,53.561,51.85,127.608,10.798,178.944c-4.151,5.191-8.607,9.748-13.278,13.703
	c-19.462,26.411-51.693,39.844-94.244,35.589c-29.128-7.282-50.974-14.564-65.538-43.692c-21.846-65.538,7.282-138.358,0-211.178
	c-7.282-36.41-29.128-87.384-65.538-58.256c-65.538,50.974-101.948,160.204-203.896,116.512
	c-58.256-21.846-29.128-123.794-80.102-145.64c-87.384-21.846-92.963,118.315-189.332,101.948
	c-54.74-9.296-62.985-63.344-61.234-110.883c6.691-8.458,13.65-16.729,20.788-24.835c-0.001-0.048-0.002-0.095-0.003-0.142
	c-47.153,53.499-85.324,115.185-103.312,178.723c135.468,288.383,572.513,212.175,842.832,219.289
	c96.512,0,183.405-47.996,248.015-120.622C1623.141,929.778,1609.193,851.857,1574.707,779.687z"/>
<path style="fill:#F29796;" d="M1350.184,1118.704c-270.337-7.114-707.421,69.104-842.859-219.344
	c-1.055,3.725-2.028,7.457-2.942,11.193c-0.152,0.622-0.294,1.243-0.442,1.865c-0.763,3.206-1.473,6.416-2.129,9.628
	c-0.12,0.589-0.248,1.177-0.365,1.766c-0.746,3.772-1.429,7.546-2.022,11.324c-0.009,0.059-0.016,0.117-0.025,0.176
	c-0.559,3.576-1.029,7.154-1.447,10.733c-0.09,0.77-0.174,1.541-0.257,2.311c-0.356,3.296-0.657,6.592-0.89,9.888
	c-0.028,0.397-0.067,0.794-0.093,1.191c-0.245,3.712-0.405,7.423-0.487,11.133c-0.014,0.616-0.01,1.231-0.02,1.846
	c-0.047,3.078-0.033,6.153,0.035,9.228c0.019,0.842,0.035,1.685,0.062,2.527c0.237,7.264,0.798,14.515,1.702,21.745
	c0.11,0.882,0.237,1.764,0.358,2.646c0.394,2.879,0.843,5.753,1.346,8.624c0.145,0.825,0.277,1.651,0.431,2.476
	c0.666,3.566,1.407,7.125,2.249,10.676c0.123,0.523,0.27,1.043,0.398,1.566c0.74,3.029,1.551,6.051,2.421,9.068
	c0.288,0.997,0.584,1.993,0.887,2.989c0.885,2.917,1.832,5.828,2.844,8.731c0.222,0.637,0.422,1.276,0.65,1.913
	c1.24,3.462,2.581,6.912,4.004,10.353c0.362,0.875,0.753,1.746,1.127,2.619c1.143,2.671,2.343,5.335,3.6,7.992
	c0.469,0.992,0.934,1.985,1.42,2.974c1.666,3.399,3.395,6.788,5.252,10.16c0.015,0.027,0.027,0.055,0.042,0.083
	c5.844,10.601,14.366,19.494,25.004,26.977c22.121,15.56,53.522,24.932,89.87,30.317c4.967,0.736,10.016,1.406,15.155,1.999
	c5.274,0.609,10.639,1.142,16.072,1.613c0.488,0.042,0.975,0.085,1.463,0.126c8.34,0.703,16.843,1.257,25.476,1.676
	c5.91,0.287,11.878,0.512,17.892,0.684c9.02,0.257,18.14,0.391,27.312,0.427c6.115,0.024,12.254,0.005,18.402-0.051
	c3.074-0.028,6.151-0.065,9.228-0.111c9.325-0.138,18.654-0.351,27.942-0.616c5.936-0.169,11.854-0.359,17.742-0.563
	c73.078-2.534,141.528-7.284,181.124-1.914c24.738,3.356,49.57,5.821,74.44,7.486c19.655,1.316,39.333,2.153,59.016,2.393
	c9.371,0.114,18.743,0.09,28.113-0.043c24.926-0.353,49.832-1.611,74.675-3.738c3.016-0.258,6.029-0.537,9.043-0.822
	c60.506-5.713,120.586-16.709,179.511-33.361c27.111-7.661,57.317-17.174,85.171-30.733c1.99-0.968,3.967-1.958,5.93-2.969
	c7.854-4.043,15.485-8.428,22.765-13.208c7.279-4.78,14.208-9.955,20.659-15.574s12.424-11.685,17.792-18.247
	c1.342-1.64,2.646-3.312,3.91-5.016c3.54-4.77,6.747-9.805,9.62-15.092c0.01-0.017,0.02-0.035,0.03-0.052
	c1.22-2.248,2.397-4.529,3.485-6.876c0.337-0.726,0.633-1.463,0.96-2.192c1.971-4.393,3.804-8.822,5.437-13.303
	C1533.657,1070.672,1446.733,1118.704,1350.184,1118.704z"/>
<path style="fill:#F29796;" d="M1352.242,868.622c-4.115-31.579-1.987-58.206,19.789-70.325
	c47.801-26.605,72.82,29.128,109.229,43.692c50.466,15.139,84.372-16.759,92.594-60.487c0,0-0.001,0.001-0.001,0.002
	c-0.373,0.759-0.771,1.505-1.177,2.245c-0.254,0.463-0.501,0.928-0.769,1.383c-0.469,0.799-0.973,1.578-1.485,2.352
	c-0.242,0.367-0.469,0.743-0.72,1.104c-0.784,1.125-1.605,2.226-2.482,3.291c-0.003,0.004-0.006,0.007-0.009,0.011
	c-0.872,1.058-1.798,2.08-2.764,3.075c-0.311,0.321-0.649,0.624-0.97,0.938c-0.681,0.665-1.37,1.324-2.096,1.958
	c-0.408,0.356-0.838,0.695-1.26,1.041c-0.689,0.563-1.388,1.117-2.115,1.651c-0.468,0.344-0.949,0.678-1.433,1.01
	c-0.737,0.505-1.492,0.995-2.267,1.471c-0.511,0.314-1.026,0.625-1.554,0.927c-0.815,0.464-1.658,0.906-2.512,1.338
	c-0.531,0.268-1.054,0.543-1.6,0.799c-0.966,0.453-1.973,0.872-2.988,1.285c-0.478,0.194-0.937,0.403-1.427,0.588
	c-1.53,0.578-3.106,1.119-4.747,1.604c-62.163,18.381-81.117-47.498-137.689-52.342c-2.174-0.186-4.285-0.308-6.333-0.368
	c-26.627-0.779-42.709,8.915-50.881,24.015c-1.257,2.323-2.327,4.774-3.22,7.335c-0.447,1.281-0.848,2.588-1.207,3.921
	c-0.418,1.553-0.76,3.149-1.063,4.767c-3.592,19.204,0.799,42.685,10.027,64.355
	C1350.134,863.659,1351.183,866.126,1352.242,868.622z"/>
<path style="fill:#F29796;" d="M651.113,856.552c96.369,16.367,101.947-123.794,189.332-101.948
	c50.974,21.846,21.846,123.794,80.102,145.64c101.948,43.692,138.358-65.539,203.896-116.512
	c36.41-29.128,58.256,21.846,65.538,58.256c7.282,72.82-21.846,145.64,0,211.178c14.564,29.128,36.41,36.41,65.538,43.692
	c42.55,4.255,74.781-9.177,94.244-35.589c-15.208,12.881-32.727,19.299-49.697,19.688c-1.851,0.042-3.693-0.001-5.527-0.101
	c-2.972-0.163-5.913-0.521-8.815-1.053c-0.764-0.14-1.521-0.307-2.278-0.473c-5.258-1.15-10.351-2.916-15.199-5.272
	c-1.609-0.783-3.189-1.629-4.739-2.542c-16.608-9.784-29.628-27.003-34.681-51.052c-2.111-10.047-2.856-20.755-2.721-31.905
	c0.269-22.3,4.055-46.364,7.467-70.432c1.28-9.026,2.507-18.051,3.475-26.985c0.646-5.955,1.177-11.87,1.533-17.716
	c2.669-43.845-4.532-83.832-47.259-108.35c-17.48-10.031-35.576-14.48-53.475-14.521c-26.2-0.058-51.959,9.368-74.767,24.524
	c-1.572,1.044-3.121,2.129-4.663,3.227c-1.561,1.11-3.135,2.197-4.663,3.36c-11.676,8.881-19.949,19.918-27.856,31.01
	c-0.868,1.217-1.736,2.432-2.598,3.648c-1.643,2.315-3.285,4.625-4.952,6.905c-4.209,5.757-8.584,11.344-13.57,16.452
	c-2.493,2.554-5.138,4.989-7.992,7.265c-2.295,1.83-4.633,3.512-7.006,5.047c-11.862,7.673-24.575,11.66-36.925,12.085
	c-9.88,0.339-19.528-1.602-28.322-5.761c-13.191-6.239-24.462-17.469-31.717-33.477c-2.569-5.669-4.673-11.927-6.548-18.475
	c-0.469-1.637-0.922-3.292-1.366-4.96c-1.774-6.674-3.378-13.563-5.044-20.369c-0.834-3.403-1.684-6.786-2.579-10.109
	c-9.399-34.903-23.809-63.401-77.269-42.321c-6.255,2.466-12.195,5.487-17.918,8.854c-5.722,3.368-11.228,7.082-16.615,10.936
	c-2.343,1.676-4.66,3.38-6.966,5.092c-0.679,0.505-1.359,1.009-2.037,1.515c-3.292,2.458-6.562,4.92-9.829,7.346
	c-0.685,0.509-1.372,1.015-2.058,1.52c-1.897,1.397-3.797,2.773-5.702,4.125c-0.785,0.557-1.573,1.108-2.359,1.655
	c-1.781,1.237-3.569,2.445-5.367,3.62c-2.144,1.401-4.304,2.749-6.485,4.038c-2.353,1.389-4.726,2.719-7.137,3.943
	c-0.051,0.026-0.104,0.049-0.156,0.075c-4.122,2.086-8.34,3.909-12.697,5.379c-2.228,0.752-4.505,1.378-6.81,1.935
	c-3.979,0.962-8.075,1.633-12.328,1.924c-7.919,0.542-16.352-0.159-25.492-2.517c-0.01-0.003-0.019-0.007-0.03-0.01
	c-2.466-0.637-4.811-1.437-7.099-2.311c-0.664-0.254-1.311-0.528-1.961-0.801c-1.742-0.732-3.427-1.53-5.059-2.393
	c-0.528-0.278-1.073-0.534-1.59-0.826c-1.988-1.126-3.893-2.344-5.709-3.654c-0.556-0.4-1.072-0.837-1.611-1.253
	c-1.269-0.981-2.499-2-3.677-3.067c-0.645-0.582-1.284-1.165-1.902-1.772c-1.125-1.106-2.192-2.258-3.226-3.439
	c-0.857-0.976-1.674-1.977-2.469-3.001c-0.825-1.065-1.639-2.136-2.397-3.249c-0.675-0.987-1.304-1.999-1.925-3.02
	c-0.47-0.775-0.918-1.561-1.357-2.355c-2.29-4.123-4.16-8.479-5.619-13.015c-0.11-0.343-0.225-0.682-0.33-1.026
	c-2.114-6.909-3.255-14.16-3.415-21.524c0-0.008-0.001-0.016-0.002-0.024c0,0.001,0,0.002,0.001,0.002
	c-0.004-0.157-0.005-0.314-0.008-0.471c-7.138,8.106-14.097,16.377-20.788,24.835C588.127,793.208,596.373,847.256,651.113,856.552z
	"/>
<path style="fill:#984330;" d="M1559.526,684.8c-29.43-40.788-90.088-101.383-187.347-146.453
	c-7.364,37.588-30.79,70.118-72.969,85.182c-139.441,55.776-398.875,51.355-439.897-115.281
	c-27.828,7.951-52.307,17.182-71.718,27.373c-63.041,33.094-139.69,83.312-169.906,150.464c-4.943,10.986-7.189,22.892-7.025,34.607
	c0.001,0.047,0.001,0.094,0.003,0.142c0.003,0.157,0.004,0.314,0.008,0.471c12.967,27.089,38.06,45.114,69.566,33.299
	c65.538-14.564,94.666-101.948,160.204-109.23c94.666-14.564,62.87,134.395,84.933,173.687
	c10.656,18.977,35.979,34.275,63.591,22.062c33.742-14.925,38.082-66.906,81.111-101.227
	c53.942-43.025,126.317-59.025,170.875,21.99c50.974,80.102-10.599,215.504,41.313,262.873
	c51.911,47.369,89.936-3.244,89.936-53.209c0-50.821-94.839-173.254-7.454-231.51c50.974-36.41,94.666,7.282,131.076,43.692
	c29.562,23.648,63.92,4.096,83.595-19.683C1584.029,737.452,1574.683,705.807,1559.526,684.8z"/>
<path style="fill:#FEF0E5;" d="M1126.155,180.613c-2.702,1.337-4.569,3.039-5.896,5.011c2.162,2.859,63.393,70.381,74.507,110.394
	c8.946,32.207,3.067,83.18-32.516,97.16c-0.96,0.377-1.397-1.053-0.658-1.561c32.895-22.527,33.407-75.101,18.415-107.929
	c-6.187-13.546-14.774-25.587-23.752-37.388c12.119,30.789,12.74,62.007-9.967,93.229c-52.905,79.359-147.848,2.585-224.838,25.99
	c-7.768,6.084-15.283,12.939-22.448,20.78c-9.391,10.277-17.103,21.705-22.975,33.736c1.607-3.276,3.346-6.51,5.227-9.684
	c22.709-40.649,66.74-38.386,88.833-34.163c26.886,5.136,51.945,17.007,78.836,22.204c28.061,5.423,56.401,3.605,84.764,4.877
	c0.667,0.03,0.818,0.988,0.158,1.173c-23.521,6.617-48.25,7.137-72.456,4.362c-23.414-2.685-45.251-10.072-67.693-16.839
	c-1.767-0.533-3.571-1.095-5.392-1.665c4.674,1.5,9.277,3.293,13.825,5.253c7.081,3.053,13.362,7.595,19.988,11.519
	c6.039,3.575,12.864,6.391,17.867,11.393c0.669,0.67,0.183,1.915-0.786,1.894c-6.269-0.133-12.079-2.597-18.066-4.283
	c-6.617-1.863-13.517-3.136-20.043-5.269c-11.853-3.874-22.974-9.716-35.646-10.602c-21.133-1.477-41.838,7.574-58.621,19.809
	c-0.757,0.553-1.495-0.482-1.167-1.167c10.266-21.5,33.626-32.61,56.793-32.854c8.509-0.089,16.688,1.47,24.651,3.928
	c-22.052-6.936-47.44-15.312-66.891-3.079c-39.868,25.073-30.196,55.536-20.694,70.889c-0.003-3.363,0.621-6.675,2.299-9.66
	c3.59-6.376,10.29-9.598,17.312-10.527c16.804-2.222,35.181,5.885,50.03,12.862c17.91,8.416,36.239,18.563,52,30.552
	c0.848,0.644,0.402,2.283-0.789,1.872c-29.982-10.365-56.365-30.838-88.516-34.801c-5.789-0.714-14.13-1.58-18.963,2.529
	c-6.062,5.155-3.575,14.571-1.112,20.9c2.35,6.043,5.54,11.726,9.154,17.165c12.813,13.772,27.78,25.19,43.31,32.956
	c72.82,36.41,160.204,43.692,233.024,7.282c56.144-28.072,85.176-78.149,95.359-135.518
	C1262.415,272.408,1147.85,169.876,1126.155,180.613z"/>
<path style="fill:#FDD9B7;" d="M1146.289,339.53c22.706-31.222,22.086-62.44,9.967-93.229c8.978,11.801,17.565,23.841,23.752,37.388
	c14.992,32.827,14.48,85.402-18.415,107.929c-0.739,0.507-0.302,1.938,0.658,1.561c35.583-13.981,41.462-64.954,32.516-97.16
	c-11.13-40.07-72.529-107.737-74.523-110.414c-6.753,10.015,1.995,27.758,3.666,48.501c0,0.001,0,0.003,0,0.005
	c0.377,4.692,0.394,9.535-0.216,14.48c-0.026,0.207-0.062,0.416-0.09,0.623c-0.13,0.973-0.279,1.948-0.461,2.928
	c-0.066,0.359-0.148,0.718-0.221,1.078c-0.171,0.835-0.355,1.671-0.566,2.51c-0.107,0.426-0.226,0.853-0.344,1.28
	c-0.216,0.78-0.449,1.563-0.703,2.346c-0.149,0.46-0.305,0.92-0.468,1.382c-0.267,0.758-0.559,1.518-0.865,2.279
	c-0.191,0.476-0.382,0.952-0.589,1.429c-0.333,0.767-0.699,1.535-1.074,2.303c-0.225,0.462-0.439,0.923-0.68,1.385
	c-0.436,0.836-0.916,1.674-1.404,2.511c-0.229,0.393-0.436,0.784-0.677,1.177c-0.753,1.228-1.555,2.458-2.429,3.687
	c-16.77,23.583-37.985,34.46-60.182,41.112c-1.322,0.396-2.646,0.784-3.974,1.152c-3.096,0.857-6.204,1.645-9.32,2.38
	c-10.161,2.396-20.382,4.283-30.347,6.401c-0.022,0.005-0.043,0.011-0.065,0.016c-3.395,0.722-6.781,1.526-10.162,2.373
	c-0.735,0.185-1.471,0.369-2.205,0.56c-3.452,0.896-6.897,1.845-10.324,2.888c-0.128,0.039-0.255,0.082-0.383,0.122
	c-3.463,1.061-6.91,2.211-10.339,3.439c-0.353,0.127-0.707,0.248-1.06,0.376c-3.608,1.313-7.198,2.712-10.757,4.228
	c-0.003,0.001-0.005,0.002-0.008,0.003c-14.754,6.285-29.05,14.396-42.54,24.961c-0.002,0.001-0.005,0.003-0.007,0.004
	c0.001,0,0.001,0,0.001,0C998.441,342.116,1093.384,418.889,1146.289,339.53z"/>
<path style="fill:#FDD9B7;" d="M1299.984,450.056c-0.002-4.665-0.171-9.323-0.484-13.971c-0.051-0.756-0.153-1.508-0.211-2.264
	c-0.314-4.021-0.689-8.037-1.217-12.038c-0.055-0.421-0.133-0.839-0.191-1.259c-0.602-4.379-1.3-8.748-2.139-13.095
	c-0.012-0.063-0.026-0.125-0.039-0.188c-0.901-4.652-1.929-9.285-3.079-13.891c0-0.002-0.001-0.005-0.001-0.007c0,0,0,0,0,0.001
	c-10.184,57.369-39.216,107.446-95.359,135.518c-72.82,36.409-160.204,29.128-233.024-7.282
	c-15.529-7.765-30.497-19.183-43.31-32.956c-3.614-5.439-6.804-11.122-9.154-17.165c-2.463-6.329-4.95-15.745,1.112-20.9
	c4.832-4.109,13.174-3.243,18.963-2.529c32.152,3.963,58.535,24.437,88.516,34.801c1.191,0.411,1.637-1.228,0.789-1.872
	c-15.76-11.99-34.09-22.136-52-30.552c-14.849-6.978-33.226-15.084-50.03-12.862c-7.023,0.929-13.723,4.151-17.312,10.527
	c-1.678,2.984-2.302,6.297-2.299,9.66c-9.502-15.353-19.174-45.816,20.694-70.889c19.451-12.233,44.839-3.857,66.891,3.079
	c0.402,0.124,0.804,0.25,1.205,0.379c1.821,0.571,3.625,1.132,5.392,1.665c22.442,6.766,44.279,14.153,67.693,16.839
	c24.205,2.775,48.935,2.255,72.456-4.362c0.66-0.186,0.508-1.143-0.158-1.173c-28.362-1.273-56.702,0.546-84.764-4.877
	c-26.891-5.198-51.95-17.068-78.836-22.204c-22.094-4.223-66.124-6.486-88.833,34.163c-3.846,6.489-7.131,13.211-9.807,20.079
	c-0.002,0.005-0.004,0.012-0.007,0.017c-0.885,2.272-1.702,4.56-2.451,6.86c-0.018,0.053-0.033,0.106-0.05,0.159
	c-2.141,6.602-3.695,13.308-4.665,20.042c-0.058,0.402-0.134,0.801-0.187,1.203c-0.231,1.738-0.388,3.478-0.537,5.219
	c-0.083,0.968-0.161,1.936-0.219,2.904c-0.092,1.557-0.152,3.114-0.177,4.669c-0.02,1.209,0.002,2.415,0.024,3.622
	c0.025,1.39,0.04,2.78,0.12,4.166c0.11,1.899,0.305,3.79,0.521,5.68c0.152,1.332,0.335,2.659,0.541,3.985
	c0.298,1.922,0.628,3.839,1.04,5.744c0.215,0.995,0.481,1.98,0.727,2.97c0.42,1.684,0.876,3.36,1.388,5.027
	c0.3,0.975,0.615,1.946,0.947,2.914c0.008,0.024,0.016,0.048,0.024,0.072c0.006,0.018,0.011,0.037,0.017,0.055
	c0.591,1.717,1.248,3.418,1.941,5.112c0.334,0.816,0.645,1.637,1.003,2.448c1.115,2.524,2.314,5.027,3.665,7.487
	c12.852,23.401,38.184,39.943,68.894,51.552c1.842,0.697,3.708,1.367,5.588,2.028c4.582,1.612,9.268,3.117,14.042,4.527
	c3.263,0.964,6.56,1.882,9.895,2.756c13.933,3.651,28.405,6.562,42.964,8.816c15.289,2.367,30.64,4.056,45.462,5.19
	c11.539,0.882,22.756,1.437,33.373,1.741c10.592,0.303,20.584,0.354,29.701,0.227c21.344-0.295,37.886-1.563,46.06-2.861
	c9.146-1.452,18.02-3.42,26.546-5.925c4.263-1.253,8.44-2.639,12.52-4.162c2.04-0.762,4.056-1.558,6.047-2.388
	c23.89-9.964,44.15-24.899,58.759-45.371c3.652-5.118,6.952-10.582,9.866-16.401c1.369-2.732,2.62-5.57,3.815-8.459
	c0.635-1.533,1.258-3.075,1.842-4.653c0.002-0.004,0.003-0.009,0.005-0.013c1.262-3.407,2.398-6.925,3.42-10.542
	c0.269-0.953,0.532-1.912,0.783-2.88c3.438-13.211,5.293-27.778,5.293-43.802C1299.988,450.128,1299.984,450.092,1299.984,450.056z"
	/>
<path style="fill:#FDD9B7;" d="M1222.616,315.482c11.113,25.869,16.609,55.106,3.026,81.136
	c-27.037,51.81-93.456,54.636-144.433,49.762c-33.322-3.185-65.216-11.639-97.116-21.442c-0.859-0.264-1.3,0.941-0.59,1.404
	c26.742,17.471,58.619,24.64,89.876,29.288c31.971,4.754,65.583,7.641,97.084-1.372c25.057-7.169,48.318-22.118,62.715-44.17
	c16.36-25.059,14.248-55.722,4.18-82.746c-12.116-32.523-31.668-63.369-55.895-88.199c-0.404-0.414-1.108,0.119-0.803,0.62
	C1195.515,264.342,1211.25,289.026,1222.616,315.482z"/>
<path style="fill:#FDD9B7;" d="M1180.969,496.315c-18.822,6.675-39.199,9.228-59.108,9.218c-20.886-0.011-41.222-5.112-61.931-5.753
	c-0.997-0.031-1.417,1.437-0.517,1.909c18.92,9.906,43.067,12.923,64.137,14.064c21.853,1.184,43.877-1.408,64.419-9.185
	c33.942-12.849,60.075-39.122,68.906-74.64c0.155-0.628-0.816-1.105-1.092-0.461
	C1242.496,462.427,1212.094,485.277,1180.969,496.315z"/>
<path style="fill:#FFFFFF;" d="M1112.138,391.856c13.058-1.863,26.017-6.304,36.904-13.866c10.228-7.105,18.753-16.698,24.252-27.91
	c5.856-11.943,6.014-24.96,2.685-37.654c-1.284-4.893-9-3.947-8.884,1.202c0.237,10.477-3.477,20.586-7.618,30.065
	c-4.146,9.494-10.881,17.967-19.034,24.337c-18.923,14.786-41.738,16.361-64.676,18.392c-1.076,0.095-1.759,1.65-0.603,2.226
	C1086.381,394.245,1100.02,393.585,1112.138,391.856z"/>
<path style="fill:#FFFFFF;" d="M1189.868,401.662c-22.434,23.774-53.762,31.154-85.48,31.283c-1.061,0.005-1.269,1.548-0.249,1.844
	c32.568,9.466,73.236,0.896,97.046-24.105c11.44-12.012,20.191-27.904,21.798-44.59c0.779-8.07-0.24-15.709-1.813-23.602
	c-1.561-7.823-6.402-15.369-10.696-22.043c-0.494-0.766-1.949-0.279-1.561,0.658c5.495,13.233,4.199,29.52,0.236,43.114
	C1205.138,377.994,1199.871,391.063,1189.868,401.662z"/>
<path style="fill:#FFFFFF;" d="M1022.118,407.074c-6.626-3.924-12.907-8.466-19.988-11.519c-4.547-1.96-9.15-3.753-13.825-5.253
	c-0.401-0.129-0.803-0.255-1.205-0.379c-7.963-2.459-16.143-4.018-24.651-3.928c-23.167,0.244-46.526,11.354-56.793,32.854
	c-0.328,0.686,0.41,1.72,1.167,1.167c16.783-12.235,37.487-21.286,58.621-19.809c12.672,0.885,23.793,6.728,35.646,10.602
	c6.526,2.133,13.426,3.406,20.043,5.269c5.987,1.685,11.798,4.149,18.066,4.283c0.969,0.02,1.454-1.225,0.786-1.894
	C1034.982,413.465,1028.157,410.649,1022.118,407.074z"/>
<path style="fill:#FFFFFF;" d="M1248.882,403.238c-15.405,28.741-40.035,49.237-70.731,60.267
	c-18.099,6.504-36.958,8.647-56.055,9.566c-9.743,0.469-19.507,0.379-29.247-0.071c-4.588-0.212-9.15-0.4-13.748-0.441
	c-5.78-0.051-11.375,1.173-17.087,1.051c-1.826-0.039-2.205,2.723-0.432,3.185c5.65,1.472,10.493,4.044,16.224,5.335
	c4.996,1.126,9.963,1.858,15.042,2.469c11.376,1.368,22.924,2.413,34.392,2.31c20.125-0.182,41.201-3.394,59.952-10.859
	c30.49-12.137,60.114-37.19,65.433-71.236C1252.957,402.693,1250.069,401.024,1248.882,403.238z"/>
<path style="fill:#FFFFFF;" d="M1161.219,215.178c5.344,4.596,10.852,8.993,16.089,13.71c10.227,9.21,19.596,19.366,28.744,29.63
	c9.141,10.257,17.764,20.938,24.74,32.787c7.115,12.086,13.312,24.816,18.985,37.638c0.793,1.789,3.638,0.509,3.121-1.316
	c-3.945-13.893-9.471-26.995-16.282-39.727c-6.802-12.714-13.86-25.311-22.362-36.976c-8.433-11.574-18.34-21.863-29.007-31.401
	c-5.392-4.821-10.927-9.501-16.95-13.52c-6.194-4.135-11.712-6.825-18.76-9.118c-2.721-0.885-4.4,2.659-2.656,4.565
	C1151.48,206.472,1156.043,210.727,1161.219,215.178z"/>
<path style="fill:#FFFFFF;" d="M977.711,479.053c-2.891-2.436-5.721-4.755-9.035-6.594c-3.326-1.843-6.684-3.629-10.075-5.352
	c-6.594-3.354-13.46-6.746-21.062-6.574c-7.007,0.159-12.196,3.232-14.971,9.706c-1.551,3.613,2.323,6.919,5.495,4.239
	c1.433-1.212,4.299-1.318,6.16-1.478c2.315-0.2,4.457,0.235,6.625,1.047c5.502,2.063,10.834,5.157,16.016,7.917
	c2.638,1.406,5.206,3.035,7.903,4.324c2.805,1.339,5.851,2.271,8.741,3.415c5.593,2.215,10.863,4.884,16.832,5.807
	c1.054,0.163,2.05-0.835,1.445-1.88C988.353,487.688,982.913,483.436,977.711,479.053z"/>
<path style="fill:#FFFFFF;" d="M1197.424,513.284c-4.759,1.933-9.87,3.172-14.832,4.501c-9.969,2.67-20.116,5.157-30.38,6.345
	c-11.062,1.28-22.18,1.968-33.316,1.715c-5.773-0.131-11.54-0.478-17.292-0.994c-5.755-0.516-11.442-0.442-17.158-0.784
	c-0.798-0.047-0.887,1.112-0.182,1.342c6.431,2.093,12.28,4.12,19.03,5.363c5.175,0.952,10.377,1.756,15.601,2.405
	c12.556,1.561,25.167,2.203,37.761,0.756c10.852-1.247,21.146-3.412,31.211-7.721c4.93-2.112,9.568-4.906,14.159-7.682
	c4.857-2.938,7.794-6.887,11.958-10.65l-0.517-0.67C1208.521,509.784,1202.664,511.157,1197.424,513.284z"/>
<path style="fill:#B04D38;" d="M1549.847,688.329c-9.587-16.099-29.345-32.596-43.122-45.023
	c-26.573-23.97-57.198-46.663-86.914-66.515c-9.685-6.47-23.928-15.692-35.813-9.401c-9.87,5.224-10.388,17.321-6.621,26.719
	c5.136,12.813,18.423,20.013,23.11,33.469c6.592,18.929,0.611,38.541-17.37,46.569c-14.465,6.458-34.24,12.881-39.736,29.629
	c-2.956,9.009-0.535,20.867,8.535,24.225c19.88-13.454,37.59-26.068,62.735-21.636c17.229,3.036,33.098,10.373,47.936,19.367
	c23.477,14.231,60.381,48.317,85.721,16.826C1559.03,729.232,1558.052,702.107,1549.847,688.329z"/>
<path style="fill:#B04D38;" d="M1319.9,838.744c-0.752-10.499-4.619-60.518-24.929-37.063c-13.721,15.845-7.296,44.327-1.236,61.615
	c5.356,15.281,27.646,61.448,24.005,74.512c-7.354,26.388-36.77,21.629-34.867,50.661c1.192,18.194,17.074,38.469,35.733,38.886
	c40.461,0.904,44.12-50.175,38.521-76.136C1348.744,912.349,1322.797,879.205,1319.9,838.744z"/>
<path style="fill:#B04D38;" d="M1103.474,666.518c-66.488,10.435-76.221,51.964-122.385,56.98
	c-18.568,2.017-37.073-35.658-54.414-25.78c-17.341,9.877-6.81,99.063,33.453,119.488c40.548,20.57,69.653-55.244,84.607-78.207
	c19.596-30.09,50.12-45.052,84.719-51.948c9.149-1.824,36.941,2.88,34.625-14.64
	C1162.663,661.687,1115.668,664.605,1103.474,666.518z"/>
<path style="fill:#B04D38;" d="M857.066,599.932c-28.929-8.259-60.753,1.978-85.054,17.975
	c-30.844,20.304-53.054,51.141-93.908,49.571c-12.445-0.478-29.448-6.992-38.471,3.358c-19.667,22.557,0.005,54.069,14.031,59.084
	c18.339,6.557,39.33-1.122,56.09-9.28c37.746-18.373,59.318-56.312,95.343-76.563c12.485-7.019,28.179-9.837,42.29-10.403
	c11.679-0.468,25.243,4.5,33.709-7.114C890.639,613.465,867.424,602.889,857.066,599.932z"/>
<path style="fill:#87291F;" d="M1299.21,623.529c42.218-15.078,65.652-47.654,72.993-85.286c-9.99-4.628-20.371-9.089-31.139-13.35
	c-0.233-0.093-0.463-0.187-0.697-0.279c-3.207-1.265-6.461-2.506-9.738-3.734c-1.078-0.404-2.167-0.802-3.253-1.201
	c-9.421-3.469-19.136-6.773-29.131-9.903c-2.184-0.684-4.377-1.362-6.589-2.028c-0.387-0.117-0.78-0.229-1.167-0.345
	c-0.584,1.578-1.208,3.12-1.842,4.653c-1.195,2.889-2.447,5.728-3.815,8.459c-2.915,5.819-6.214,11.284-9.866,16.401
	c-14.61,20.472-34.869,35.407-58.759,45.371c-1.991,0.83-4.007,1.626-6.047,2.388c-4.08,1.523-8.256,2.909-12.52,4.162
	c-8.526,2.505-17.4,4.473-26.546,5.925c-8.173,1.298-24.716,2.566-46.06,2.861c-9.117,0.126-19.109,0.075-29.701-0.227
	c-10.617-0.303-21.834-0.859-33.373-1.741c-14.821-1.133-30.173-2.822-45.462-5.19c-14.559-2.254-29.031-5.165-42.964-8.816
	c-3.335-0.874-6.631-1.792-9.895-2.756c-4.774-1.41-9.46-2.915-14.042-4.527c-1.879-0.661-3.746-1.332-5.588-2.028
	c-30.71-11.609-56.042-28.151-68.894-51.552c-1.351-2.46-2.55-4.963-3.665-7.487c-0.358-0.81-0.669-1.631-1.003-2.448
	c-0.693-1.694-1.351-3.395-1.941-5.112c-3.072,0.826-6.201,1.628-9.196,2.484C900.309,674.884,1159.762,679.308,1299.21,623.529z"/>
<path style="fill:#87291F;" d="M1579.419,764.049c-19.675,23.78-54.033,43.332-83.595,19.683
	c-36.41-36.41-80.102-80.102-131.076-43.692c-87.384,58.256,7.454,180.689,7.454,231.51c0,49.965-38.025,100.578-89.936,53.209
	c-51.911-47.369,9.661-182.771-41.313-262.873c-44.558-81.015-116.932-65.016-170.875-21.99
	c-43.029,34.321-47.369,86.302-81.111,101.227c-27.612,12.213-52.936-3.085-63.591-22.062
	c-22.063-39.292,9.733-188.25-84.933-173.687c-65.538,7.282-94.666,94.666-160.204,109.23
	c-31.506,11.815-56.598-6.209-69.566-33.299c-0.001,0-0.001-0.001-0.001-0.002c0,0.008,0.001,0.016,0.002,0.024
	c0.16,7.355,1.314,14.62,3.415,21.524c0.105,0.344,0.22,0.684,0.33,1.026c1.451,4.535,3.338,8.891,5.619,13.015
	c0.439,0.794,0.887,1.58,1.357,2.355c0.619,1.022,1.254,2.034,1.925,3.02c0.758,1.114,1.572,2.185,2.397,3.249
	c0.793,1.024,1.615,2.024,2.469,3.001c1.034,1.181,2.101,2.333,3.226,3.439c0.617,0.606,1.258,1.19,1.902,1.772
	c1.179,1.067,2.408,2.086,3.677,3.067c0.539,0.417,1.057,0.853,1.611,1.253c1.817,1.311,3.721,2.529,5.709,3.654
	c0.516,0.292,1.063,0.547,1.59,0.826c1.632,0.864,3.317,1.661,5.059,2.393c0.649,0.273,1.297,0.547,1.961,0.801
	c2.287,0.874,4.633,1.674,7.099,2.311c0.01,0.003,0.021,0.007,0.031,0.009c9.14,2.358,17.573,3.059,25.491,2.517
	c4.253-0.291,8.349-0.962,12.328-1.924c2.305-0.557,4.582-1.183,6.81-1.935c4.357-1.47,8.575-3.293,12.697-5.379
	c0.052-0.026,0.105-0.048,0.156-0.075c2.411-1.224,4.784-2.554,7.137-3.943c2.181-1.288,4.341-2.637,6.485-4.038
	c1.798-1.175,3.587-2.382,5.367-3.62c0.787-0.547,1.574-1.098,2.359-1.655c1.905-1.352,3.805-2.729,5.702-4.125
	c0.686-0.505,1.373-1.011,2.058-1.52c3.267-2.426,6.537-4.888,9.829-7.346c0.678-0.506,1.358-1.01,2.037-1.515
	c2.306-1.712,4.623-3.416,6.966-5.092c5.387-3.854,10.893-7.568,16.615-10.936c5.723-3.367,11.662-6.388,17.918-8.855
	c53.461-21.08,67.871,7.419,77.27,42.322c0.896,3.324,1.745,6.706,2.579,10.109c1.667,6.806,3.27,13.694,5.044,20.369
	c0.443,1.668,0.897,3.323,1.366,4.96c1.874,6.548,3.979,12.806,6.548,18.475c7.255,16.008,18.526,27.238,31.717,33.477
	c8.795,4.159,18.442,6.1,28.322,5.761c12.35-0.424,25.062-4.411,36.925-12.085c2.372-1.535,4.711-3.217,7.006-5.047
	c2.854-2.276,5.499-4.711,7.992-7.265c4.986-5.108,9.36-10.695,13.57-16.452c1.667-2.281,3.309-4.59,4.952-6.905
	c0.863-1.216,1.731-2.431,2.598-3.648c7.907-11.092,16.179-22.128,27.855-31.01c1.529-1.163,3.103-2.25,4.664-3.36
	c1.543-1.098,3.091-2.183,4.663-3.227c22.808-15.157,48.567-24.582,74.767-24.524c17.899,0.04,35.995,4.49,53.475,14.521
	c42.727,24.518,49.928,64.505,47.259,108.35c-0.356,5.846-0.887,11.761-1.533,17.716c-0.969,8.933-2.196,17.96-3.475,26.985
	c-3.412,24.068-7.198,48.132-7.467,70.432c-0.134,11.149,0.611,21.858,2.721,31.905c5.053,24.049,18.074,41.268,34.681,51.052
	c1.55,0.913,3.13,1.76,4.739,2.542c4.848,2.357,9.941,4.123,15.199,5.272c0.758,0.166,1.514,0.332,2.278,0.473
	c2.902,0.532,5.844,0.891,8.815,1.053c1.834,0.1,3.676,0.143,5.527,0.101c16.971-0.389,34.49-6.807,49.697-19.688
	c4.671-3.956,9.127-8.513,13.278-13.703c41.052-51.336,11.92-125.384-10.798-178.944c-1.059-2.495-2.108-4.963-3.131-7.365
	c-9.228-21.671-13.619-45.151-10.027-64.355c0.302-1.618,0.645-3.214,1.063-4.767c0.359-1.333,0.76-2.64,1.207-3.921
	c0.893-2.56,1.963-5.012,3.22-7.335c8.172-15.1,24.254-24.794,50.881-24.015c2.048,0.06,4.159,0.182,6.333,0.368
	c56.573,4.844,75.526,70.723,137.689,52.342c1.641-0.485,3.217-1.026,4.747-1.604c0.489-0.185,0.949-0.394,1.427-0.588
	c1.016-0.413,2.022-0.832,2.988-1.285c0.546-0.255,1.069-0.53,1.6-0.799c0.855-0.432,1.698-0.874,2.512-1.338
	c0.528-0.301,1.043-0.613,1.554-0.927c0.775-0.476,1.53-0.966,2.267-1.471c0.484-0.332,0.966-0.666,1.433-1.01
	c0.727-0.535,1.426-1.089,2.115-1.651c0.422-0.345,0.852-0.685,1.26-1.041c0.726-0.634,1.415-1.293,2.096-1.958
	c0.321-0.314,0.659-0.616,0.97-0.938c0.966-0.995,1.892-2.017,2.764-3.075c0.003-0.004,0.006-0.007,0.009-0.011
	c0.877-1.065,1.698-2.167,2.482-3.291c0.251-0.361,0.478-0.737,0.72-1.104c0.511-0.775,1.015-1.553,1.485-2.352
	c0.267-0.455,0.515-0.92,0.769-1.383c0.407-0.74,0.804-1.486,1.177-2.245c0.243-0.495,0.475-0.996,0.704-1.499
	c0.049-0.107,0.101-0.211,0.149-0.317c0.292-0.651,0.569-1.311,0.838-1.974c0.209-0.513,0.414-1.028,0.609-1.548
	c0.299-0.799,0.575-1.609,0.843-2.423c0.165-0.504,0.337-1.006,0.49-1.516c0.271-0.901,0.512-1.815,0.745-2.732
	c0.112-0.436,0.236-0.867,0.339-1.307c0.312-1.332,0.591-2.676,0.829-4.037c0.006-0.032,0.013-0.063,0.019-0.095
	C1579.418,764.053,1579.419,764.051,1579.419,764.049C1579.419,764.049,1579.419,764.049,1579.419,764.049z"/>
<path style="fill:#87291F;" d="M1246.363,670.156c4.612,0,4.619-7.168,0-7.168C1241.749,662.987,1241.742,670.156,1246.363,670.156z
	"/>
<path style="fill:#87291F;" d="M1267.126,686.236c-10.322,0-10.34,16.043,0,16.043
	C1277.45,702.279,1277.468,686.236,1267.126,686.236z"/>
<path style="fill:#87291F;" d="M1271.7,742.17c-0.878-0.508-1.827-0.765-2.843-0.768c-0.777-0.03-1.499,0.132-2.171,0.485
	c-0.698,0.227-1.301,0.615-1.813,1.164c-0.548,0.509-0.937,1.114-1.162,1.812c-0.354,0.672-0.516,1.394-0.486,2.171
	c0.065,0.498,0.133,0.997,0.201,1.497c0.267,0.955,0.75,1.782,1.447,2.486l1.141,0.88c0.878,0.51,1.826,0.766,2.843,0.77
	c0.775,0.029,1.499-0.133,2.169-0.485c0.699-0.228,1.304-0.615,1.813-1.164c0.549-0.51,0.937-1.115,1.164-1.814
	c0.352-0.67,0.514-1.394,0.485-2.169l-0.201-1.498c-0.269-0.954-0.75-1.783-1.449-2.485L1271.7,742.17z"/>
<path style="fill:#87291F;" d="M1302.599,756.601c3.405,0,3.41-5.291,0-5.291C1299.194,751.31,1299.189,756.601,1302.599,756.601z"
	/>
<path style="fill:#87291F;" d="M1294.812,718.18c4.064,0,4.071-6.315,0-6.315C1290.75,711.864,1290.743,718.18,1294.812,718.18z"/>
<path style="fill:#87291F;" d="M1364.055,634.528c0.416-0.793,0.608-1.648,0.572-2.564c-0.08-0.59-0.158-1.18-0.238-1.77
	c-0.224-0.53-0.448-1.06-0.67-1.59c-0.418-0.775-0.99-1.397-1.716-1.867c-0.414-0.412-0.903-0.698-1.468-0.857
	c-0.793-0.416-1.646-0.607-2.563-0.573c-0.591,0.079-1.181,0.159-1.769,0.238c-0.532,0.224-1.062,0.447-1.592,0.671
	c-0.775,0.418-1.397,0.99-1.866,1.714c-0.413,0.416-0.699,0.905-0.857,1.469c-0.416,0.793-0.608,1.648-0.572,2.564
	c0.078,0.591,0.158,1.18,0.238,1.769c0.225,0.53,0.446,1.061,0.671,1.591c0.592,1,1.388,1.797,2.387,2.388l0.249,0.136l0.057,0.031
	l0.04,0.021c0.476,0.201,0.951,0.402,1.427,0.603l1.588,0.214c0.821,0.03,1.589-0.141,2.3-0.515l0.722-0.305l0.03-0.018l0.064-0.034
	l0.243-0.133c0.775-0.419,1.397-0.99,1.867-1.715C1363.611,635.582,1363.895,635.092,1364.055,634.528z"/>
<path style="fill:#87291F;" d="M1318.201,645.03l-0.608-0.295c-1.131-0.656-2.35-0.986-3.661-0.99
	c-1.308,0.005-2.53,0.334-3.661,0.99c-1.09,0.645-1.957,1.513-2.603,2.603c-0.656,1.13-0.985,2.352-0.99,3.66
	c0.005,1.31,0.334,2.53,0.99,3.661c0.646,1.09,1.513,1.958,2.603,2.602c1.13,0.656,2.352,0.987,3.661,0.99
	c1.311-0.004,2.53-0.334,3.661-0.99l0.608-0.294c1.038-0.615,1.865-1.441,2.479-2.48c0.626-1.078,0.94-2.241,0.944-3.489
	c-0.004-1.247-0.318-2.411-0.944-3.488C1320.067,646.472,1319.239,645.644,1318.201,645.03z"/>
<path style="fill:#87291F;" d="M1360.567,678.392c2.965,0,2.969-4.608,0-4.608C1357.601,673.784,1357.597,678.392,1360.567,678.392z
	"/>
<path style="fill:#87291F;" d="M1385.779,646.55l0.709,0.547c0.544,0.316,1.134,0.477,1.765,0.478
	c0.482,0.018,0.93-0.082,1.348-0.302l1.125-0.724l0.724-1.126c0.219-0.416,0.319-0.866,0.302-1.347l-0.126-0.93
	c-0.165-0.593-0.466-1.107-0.9-1.544l-0.707-0.547c-0.546-0.316-1.135-0.476-1.766-0.478c-0.481-0.018-0.931,0.081-1.349,0.301
	l-1.125,0.724l-0.723,1.126c-0.219,0.416-0.32,0.866-0.301,1.348l0.125,0.929C1385.044,645.599,1385.344,646.114,1385.779,646.55z"
	/>
<path style="fill:#87291F;" d="M1200.507,682.183c4.503,0,4.51-6.998,0-6.998C1196.004,675.185,1195.997,682.183,1200.507,682.183z"
	/>
<path style="fill:#87291F;" d="M1225.676,704.141c-0.558-0.324-1.162-0.487-1.808-0.489c-0.494-0.02-0.954,0.083-1.381,0.307
	l-1.154,0.741l-0.741,1.154c-0.224,0.427-0.327,0.887-0.308,1.381l0.128,0.953c0.169,0.606,0.476,1.134,0.921,1.581l0.725,0.561
	c0.56,0.324,1.162,0.487,1.809,0.49c0.493,0.017,0.953-0.085,1.381-0.309l1.152-0.741l0.741-1.153
	c0.224-0.428,0.327-0.888,0.31-1.38l-0.128-0.953c-0.171-0.608-0.479-1.134-0.923-1.582L1225.676,704.141z"/>
<path style="fill:#87291F;" d="M912.4,640.857c-1.746,0-3.394,0.946-4.274,2.452c-0.448,0.772-0.674,1.605-0.676,2.498
	c0.002,0.894,0.228,1.726,0.676,2.499l0.078,0.17l0.822,1.107c0.434,0.466,0.944,0.795,1.536,0.987
	c0.569,0.299,1.18,0.435,1.838,0.411l1.266-0.17c0.809-0.226,1.511-0.635,2.105-1.227l0.822-1.107l0.08-0.17
	c0.448-0.772,0.674-1.604,0.677-2.499c-0.003-0.893-0.229-1.726-0.677-2.498C915.792,641.803,914.145,640.857,912.4,640.857z"/>
<path style="fill:#87291F;" d="M927.828,668.684c-1.024-0.595-2.13-0.893-3.317-0.897c-0.904-0.034-1.748,0.155-2.532,0.566
	c-0.814,0.265-1.518,0.718-2.114,1.359c-0.64,0.595-1.094,1.301-1.358,2.115c-0.41,0.782-0.601,1.626-0.567,2.531l0.235,1.747
	c0.312,1.113,0.876,2.079,1.69,2.899l1.33,1.028c1.026,0.594,2.131,0.894,3.316,0.898c0.906,0.034,1.749-0.155,2.531-0.566
	c0.816-0.265,1.52-0.717,2.115-1.359c0.64-0.595,1.094-1.3,1.359-2.114c0.413-0.783,0.601-1.627,0.565-2.532
	c-0.078-0.582-0.156-1.164-0.234-1.748c-0.311-1.113-0.875-2.079-1.689-2.899L927.828,668.684z"/>
<path style="fill:#87291F;" d="M985.128,689.899c-1.497-0.869-3.109-1.305-4.841-1.311c-1.321-0.05-2.553,0.226-3.696,0.827
	c-1.189,0.386-2.219,1.047-3.088,1.983c-0.935,0.869-1.596,1.898-1.983,3.088c-0.601,1.143-0.876,2.375-0.827,3.696
	c0.114,0.85,0.228,1.699,0.343,2.549c0.455,1.625,1.277,3.036,2.466,4.233l1.941,1.501c1.497,0.868,3.111,1.305,4.843,1.31
	c1.321,0.05,2.551-0.225,3.696-0.827c1.187-0.388,2.219-1.048,3.087-1.984c0.935-0.868,1.596-1.897,1.984-3.086
	c0.601-1.143,0.875-2.375,0.825-3.696c-0.113-0.85-0.227-1.701-0.341-2.55c-0.455-1.626-1.278-3.035-2.467-4.233
	C986.422,690.897,985.775,690.398,985.128,689.899z"/>
<path style="fill:#87291F;" d="M959.996,649.94c0.562-0.182,1.046-0.494,1.456-0.935c0.441-0.409,0.752-0.895,0.935-1.455
	c0.282-0.54,0.413-1.12,0.389-1.743l-0.162-1.202c-0.215-0.766-0.603-1.431-1.163-1.996l-0.916-0.707
	c-0.706-0.41-1.467-0.615-2.282-0.619c-0.623-0.023-1.204,0.107-1.743,0.39c-0.562,0.182-1.045,0.493-1.456,0.935
	c-0.441,0.41-0.752,0.895-0.935,1.455c-0.282,0.538-0.412,1.12-0.389,1.742l0.162,1.202c0.216,0.766,0.603,1.432,1.163,1.996
	l0.915,0.707c0.706,0.409,1.467,0.615,2.283,0.617C958.877,650.353,959.458,650.223,959.996,649.94z"/>
<path style="fill:#87291F;" d="M954.795,672.677c3.403,0,3.41-5.291,0-5.291C951.388,667.387,951.383,672.677,954.795,672.677z"/>
<path style="fill:#87291F;" d="M1019.682,658.041c-3.184,0-3.19,4.949,0,4.949C1022.868,662.99,1022.873,658.041,1019.682,658.041z"
	/>
<path style="fill:#87291F;" d="M1017.952,689.372c3.733,0,3.74-5.803,0-5.803C1014.219,683.57,1014.213,689.372,1017.952,689.372z"
	/>
<path style="fill:#87291F;" d="M711.931,598.512c0.508,0.86,1.191,1.543,2.049,2.051c0.893,0.517,1.854,0.778,2.887,0.781
	c1.031-0.004,1.993-0.264,2.886-0.781c0.859-0.508,1.543-1.191,2.052-2.051l0.368-0.563c0.554-0.958,0.836-1.993,0.839-3.101
	c-0.003-1.109-0.285-2.143-0.839-3.102c-0.546-0.922-1.282-1.657-2.205-2.205c-0.958-0.554-1.991-0.835-3.101-0.838
	c-1.109,0.003-2.144,0.283-3.1,0.838c-0.924,0.547-1.659,1.282-2.205,2.205c-0.556,0.958-0.836,1.992-0.839,3.102
	c0.004,1.108,0.283,2.143,0.839,3.101L711.931,598.512z"/>
<path style="fill:#87291F;" d="M738.496,626.558c11.97,0,11.99-18.603,0-18.603C726.527,607.955,726.507,626.558,738.496,626.558z"
	/>
<path style="fill:#87291F;" d="M792.932,561.302l1.024-0.288c1.206-0.341,2.171-1.292,2.504-2.504
	c0.339-1.233-0.018-2.583-0.921-3.487c-0.905-0.903-2.255-1.261-3.488-0.921c-1.211,0.332-2.162,1.298-2.503,2.504l-0.29,1.024
	c-0.288,1.024,0.02,2.157,0.77,2.905C790.775,561.285,791.908,561.592,792.932,561.302z"/>
<path style="fill:#87291F;" d="M712.54,627.322c5.163,0,5.17-8.022,0-8.022C707.379,619.3,707.37,627.322,712.54,627.322z"/>
<path style="fill:#87291F;" d="M830.206,569.636c3.294,0,3.301-5.121,0-5.121C826.912,564.515,826.906,569.636,830.206,569.636z"/>
<path style="fill:#87291F;" d="M864.893,577.823c-0.56-0.324-1.163-0.487-1.81-0.49c-0.494-0.017-0.953,0.085-1.379,0.309
	l-1.154,0.741l-0.741,1.153c-0.224,0.427-0.327,0.888-0.309,1.38l0.128,0.953c0.171,0.608,0.479,1.134,0.922,1.583l0.725,0.56
	c0.558,0.324,1.161,0.487,1.808,0.489c0.494,0.02,0.955-0.083,1.382-0.308l1.154-0.741l0.739-1.154
	c0.226-0.427,0.329-0.887,0.309-1.382l-0.128-0.952c-0.171-0.607-0.477-1.135-0.921-1.581L864.893,577.823z"/>
<path style="fill:#87291F;" d="M782.622,591.412c5.711,0,5.719-8.875,0-8.875C776.91,582.537,776.901,591.412,782.622,591.412z"/>
<path style="fill:#87291F;" d="M844.05,536.039c5.71,0,5.719-8.875,0-8.875C838.34,527.164,838.329,536.039,844.05,536.039z"/>
<path style="fill:#F8C7CB;" d="M1581.184,901.438c-6.922-20.117-19.569-30.991-39.833-19.949
	c-22.158,12.076-28.793,20.799-55.462,7.45c-18.214-9.116-73.652-67.418-84.73-22.767c-5.786,23.322,13.11,56.974,17.248,79.905
	c4.983,27.619,9.05,59.913,1.858,87.335c-9.94,17.942,3.09,36.776,29.807,39.882c27.945,3.249,55.392-21.669,74.037-39.491
	C1557.399,1001.981,1598.062,950.496,1581.184,901.438z"/>
<path style="fill:#F8C7CB;" d="M1113.899,843.048c-41.649,14.034-66.29,64.606-98.419,91.298
	c-44.165,36.692-72.978,40.297-116.058,7.568c-36.185-27.491-42.642-95.613-86.593-110.679
	c-22.447-7.695-36.409,7.293-51.902,21.353c-24.348,22.093-40.318,44.386-76.03,45.876c-38.774,1.617-65.687-38.108-104.462-30.844
	c-28.578,5.353-31.6,23.618-20.963,47.183c31.719,70.273,93.948,97.041,161.413,123.32c30.472,11.87,53.752,19.807,86.62,21.596
	c39.92,2.172,84.501,7.124,123.173,16.956c28.471,7.239,53.928,19.188,83.66,21.688c16.928,1.423,58.535,5.984,87.537,2.534
	c44.158-6.95,45.025-76.631,44.99-110.964C1146.84,965.554,1159.612,827.645,1113.899,843.048z"/>
<path style="fill:#EB94A2;" d="M1650.445,1100.896c-26.684-31.656-35.078,7.316-43.265,27.603
	c-10.532,26.096-24.014,34.789-48.389,44.984c-11.176,4.675-40.777,19.989-35.369,37.509c5.407,17.52,49.07-5.54,87.496,28.552
	c24.997,22.176,50.485,12.092,59.868-18.783C1680.664,1188.252,1672.717,1127.318,1650.445,1100.896z"/>
<path style="fill:#EB94A2;" d="M1435.952,1239.509c-51.279,22.603-101.866,24.164-153.168,2.217
	c-18.109-7.746-56.322-24.894-81.629-24.894c-15.573,0-35.915,9.904-9.733,17.52c35.689,10.382,81.508,40.953,117.471,64.564
	c21.875,14.361,44.294,28.428,71.373,25.314c27.067-3.113,50.647-18.368,72.61-33.378c12.952-8.852,34.02-25.355,30.576-43.173
	C1479.182,1225.585,1449.711,1233.444,1435.952,1239.509z"/>
<path style="fill:#EB94A2;" d="M1039.319,1214.21c-16.341-12.041-47.192,12.756-63.792,16.896
	c-52.737,13.153-107.953,10.615-160.574-0.386c-14.416-3.014-46.115-12.262-58.304,0.463c-7.333,7.656-8.475,26.934,7.804,28.474
	c39.682-0.015,72.902,13.521,107.729,31.906c27.398,14.463,53.278,32.01,85.53,18.733c31.83-13.104,50.373-43.676,72.715-67.824
	C1037.93,1234.361,1053.568,1224.71,1039.319,1214.21z"/>
<path style="fill:#EB94A2;" d="M677.496,1219.067c-32.099-11.454-66.947-11.752-99.401-22.037
	c-18.315-5.804-37.3-14.57-49.639-29.955c-9.521-11.872-12.927-26.712-19.898-39.791c-6.933-13.006-41.522-47.734-52.978-7.786
	c-16.426,34.429,5.124,82.09,31.134,105.784c31.896,29.057,80.674,36.064,122.116,39.676c22.481,1.959,69.366,1.12,84.215-19.122
	C705.009,1229.524,692.082,1224.271,677.496,1219.067z"/>
<path style="fill:#F8E1C6;" d="M1558.692,1387.582c-3.314-15.013-12.316-39.688-28.687-44.84c-1.364-0.43-3.129,1.06-2.517,2.52
	c3.266,7.819,9.481,14.158,12.994,22.094c4.244,9.583,6.651,19.909,7.291,30.364c1.467,23.995-4.694,47.047-9.718,70.264
	c-10.027,46.341-19.062,92.991-25.331,139.997c-0.146,1.094,1.531,1.202,1.845,0.25c16.288-49.417,31.167-100.454,41.358-151.517
	C1560.467,1433.968,1563.755,1410.525,1558.692,1387.582z"/>
<path style="fill:#F8E1C6;" d="M1481.725,1713.542c-5.396,26.312-10.785,52.682-14.699,79.261c-0.201,1.372,1.748,2.005,2.139,0.59
	c7.271-26.307,13.266-52.973,19.506-79.539c5.993-25.51,12.594-51.742,14.313-77.897l-0.67-0.091
	C1492.345,1660.547,1487.065,1687.499,1481.725,1713.542z"/>
<path style="fill:#F8E1C6;" d="M1343.891,1387.658c12.376,30.266,6.977,60.086,2.507,91.394
	c-5.054,35.415-9.504,70.951-14.057,106.435c-9.234,71.943-17.03,144.189-22.449,216.502c-0.071,0.951,1.497,1.175,1.674,0.228
	c13.871-73.613,25.434-147.844,35.127-222.142c4.862-37.263,10.264-74.502,14.317-111.859c2.923-26.933,6.91-61.253-14.409-82.134
	C1345.534,1385.036,1343.246,1386.082,1343.891,1387.658z"/>
<path style="fill:#F8E1C6;" d="M1110.071,1330.718c-1.652-0.269-2.754,1.838-1.184,2.807c25.42,15.691,30.937,47.047,34.161,74.302
	c3.71,31.363,5.172,63.107,5.286,94.678c0.224,62.388-5.823,124.631-10.756,186.764c-2.832,35.662-6.805,71.854-3.918,107.622
	c0.099,1.241,2.106,1.739,2.346,0.317c5.446-32.174,7.432-64.909,10.742-97.351c3.417-33.507,7.225-66.977,10.034-100.542
	c5.586-66.719,8.312-133.803-1.241-200.291C1151.524,1371.063,1142.562,1335.996,1110.071,1330.718z"/>
<path style="fill:#F8E1C6;" d="M957.067,1561.454c-1.308-31.977-2.77-64.108-8.087-95.712c-0.169-0.999-1.616-0.677-1.677,0.227
	c-2.162,32.377-0.718,64.891,0.338,97.287c1.058,32.439,1.897,64.884,2.459,97.335c1.127,64.978-0.194,129.899,4.72,194.746
	c0.217,2.859,4.197,2.847,4.438,0c5.557-65.469,3.031-130.959,1.159-196.548C959.49,1626.338,958.397,1593.89,957.067,1561.454z"/>
<path style="fill:#F8E1C6;" d="M738.221,1414.157c-6.539-18.83-15.647-35.458-31.677-47.753c-1.33-1.02-2.533,1.044-1.655,2.144
	c13.408,16.791,19.469,38.269,25.003,58.665c6.174,22.766,11.32,45.813,16.379,68.848c10.184,46.375,18.975,93.133,25.88,140.112
	c0.126,0.865,1.522,0.645,1.508-0.205c-0.793-50.535-6.206-100.636-16.546-150.128
	C752.101,1461.853,746.269,1437.331,738.221,1414.157z"/>
<path style="fill:#F8E1C6;" d="M794.02,1767.103c-4.119-35.427-10.923-70.438-17.826-105.369c-0.093-0.469-0.87-0.367-0.839,0.114
	c2.307,36.307,4.412,72.654,8.702,108.827c2.074,17.479,3.817,35.018,6.127,52.469c2.355,17.793,3.607,36.267,8.29,53.626
	c0.771,2.867,4.875,2.15,5.028-0.68c0.961-17.73-1.623-35.962-3.278-53.62C798.489,1803.988,796.164,1785.543,794.02,1767.103z"/>
<path style="fill:#F8E1C6;" d="M576.525,1485.912c-6.694-25.071-13.882-49.869-21.359-74.653c-0.213-0.704-1.42-0.615-1.341,0.182
	c2.539,25.563,6.269,50.481,11.892,75.66c5.648,25.297,11.808,50.504,18.694,75.493c13.603,49.367,29.468,99.868,55.216,144.388
	c0.987,1.708,3.551,0.548,3.118-1.315c-11.52-49.792-29.734-98.021-44.958-146.76
	C590.231,1534.71,583.068,1510.405,576.525,1485.912z"/>
</svg>
